<?xml version="1.0" encoding="UTF-8"?>
<svg width="1440px" height="900px" viewBox="0 0 1440 900" version="1.1" xmlns="http://www.w3.org/2000/svg" xmlns:xlink="http://www.w3.org/1999/xlink">
    <!-- Generator: Sketch 52.5 (67469) - http://www.bohemiancoding.com/sketch -->
    <title>hero</title>
    <desc>Created with Sketch.</desc>
    <g id="hero" stroke="none" stroke-width="1" fill="none" fill-rule="evenodd">
        <g id="Background" opacity="0.100000001" transform="translate(1104.000000, 450.500000) scale(1, -1) translate(-1104.000000, -450.500000) translate(874.000000, 46.000000)">
            <circle id="Oval" fill="#FF9B21" cx="230" cy="293" r="230"></circle>
            <circle id="Oval" fill="#2B44FF" cx="370" cy="768" r="41"></circle>
            <polygon id="Polygon" fill="#2B44FF" points="192 0 241 49 192 98 143 49"></polygon>
            <polygon id="Polygon" fill="#FF9B21" points="56 690 80 714 56 738 32 714"></polygon>
            <polygon id="Polygon" fill="#2026A2" points="403 63 415 75 403 87 391 75"></polygon>
        </g>
        <g id="Background" opacity="0.100000001" transform="translate(8.000000, 3.000000)">
            <ellipse id="Oval" fill="#FF9B21" cx="184" cy="234.327565" rx="184" ry="183.94314"></ellipse>
            <ellipse id="Oval" fill="#2B44FF" cx="296" cy="614.210136" rx="32.8" ry="32.789864"></ellipse>
            <polygon id="Polygon" fill="#2B44FF" points="153.6 0 192.8 39.1878863 153.6 78.3757726 114.4 39.1878863"></polygon>
            <polygon id="Polygon" fill="#FF9B21" points="44.8 551.829419 64 571.023486 44.8 590.217553 25.6 571.023486"></polygon>
            <polygon id="Polygon" fill="#2026A2" points="322.4 50.3844252 332 59.9814586 322.4 69.578492 312.8 59.9814586"></polygon>
        </g>
        <g id="Hero-Image" transform="translate(191.752302, 215.127423) rotate(-17.000000) translate(-191.752302, -215.127423) translate(20.752302, -11.872577)">
            <g id="Head/Front/Short-2" transform="translate(118.428492, 76.051940) scale(-1, 1) rotate(17.000000) translate(-118.428492, -76.051940) translate(44.928492, 19.551940)">
                <g id="Head" stroke-width="1" transform="translate(58.367647, 33.682692)" fill="#D4A181">
                    <path d="M8.93054603,37.4748493 C3.94993794,31.5980334 0.578958197,24.3959146 1.14225089,16.3257336 C2.76525399,-6.92670505 34.9649559,-1.81146482 41.2284646,9.92436942 C47.4919732,21.6602037 46.7477056,51.4291205 38.6526787,53.5266414 C35.4243932,54.3631299 28.5471851,52.3140681 21.5477918,48.0731402 L25.9411765,79.3173077 L0,79.3173077 L8.93054603,37.4748493 Z"></path>
                </g>
                <path d="M65.3048995,76.3918247 C62.0490265,61.8310561 52.7735758,51.9054682 54.1901596,45.3974273 C55.1345488,41.0587334 57.6516292,38.360652 61.7414007,37.3031831 C63.8565918,28.7014577 70.6785172,25.0428086 82.2071767,26.3272358 C99.500166,28.2538767 110.054844,35.4730455 105.4968,51.3583673 C101.306886,51.3583673 96.2487643,49.8351586 89.2544331,52.4449058 C87.03516,53.272968 85.4478709,55.8408618 84.4925657,60.1485869 L81.331855,60.1485869 C78.2642522,55.0364948 75.2395762,53.1579405 72.257827,54.5129239 C69.2760777,55.8679073 68.5982776,59.1591674 70.2244267,64.3867043 L68.6674572,76.3918247 L65.3048995,76.3918247 Z" id="Hair" fill="#191847"></path>
            </g>
            <g id="Bottom/Standing/Jogging" transform="translate(179.500000, 324.500000) scale(-1, 1) translate(-179.500000, -324.500000) translate(17.000000, 195.000000)">
                <polygon id="Leg" fill="#D4A181" points="140.833333 0 221.331947 134.622466 281.682748 248.434414 294.681775 248.434414 193.563162 5.51635214e-13"></polygon>
                <g id="Accessories/Shoe/Flat-Sneaker" transform="translate(270.833333, 215.652720)" fill="#E4E4E4">
                    <path d="M2.96094256,27.1399147 C1.70829233,30.4342817 1.08196721,32.8921755 1.08196721,34.5135961 C1.08196721,36.4521288 1.40700553,39.2809301 2.05708217,43 C4.3204911,43 24.6621283,43 63.0819937,43 C64.6678149,37.7910953 63.7523869,34.9789753 60.33571,34.5636399 C56.919033,34.1483045 54.0807414,33.7732899 51.8208352,33.4385961 L23.3766332,20.8396842 C22.8716664,20.6160171 22.2809919,20.8440556 22.0573248,21.3490224 C22.0541301,21.3562349 22.0510209,21.363485 22.0479978,21.3707711 L20.1929847,25.8415972 C17.0300354,27.3078511 14.4598108,28.040978 12.4823107,28.040978 C10.8456283,28.040978 8.57370805,27.3719638 5.66655006,26.0339355 L5.66654949,26.0339367 C4.66315575,25.5721217 3.47536936,26.011158 3.01355433,27.0145517 C2.99460141,27.0557311 2.97705402,27.0975429 2.96094256,27.1399147 Z" id="shoe"></path>
                </g>
                <path d="M264.921645,230.2097 L289.990039,222.623926 C279.006892,189.779676 265.545487,153.635783 249.605822,114.192247 C233.666157,74.7487113 216.54755,36.6846289 198.25,2.84217094e-14 L127.447746,2.84217094e-14 C147.790686,46.4043711 169.356931,88.568699 192.146481,126.492984 C214.93603,164.417268 239.194418,198.989507 264.921645,230.2097 Z" id="Pant" fill="#DB2721"></path>
                <path d="M135.543014,2.84217094e-14 C127.945456,47.307259 113.291849,107.747759 111.908943,109.612971 C110.987006,110.856445 77.797039,121.98163 12.3390414,142.988525 L15.1469881,154.454962 C93.2054966,143.188829 134.335674,134.448098 138.537519,128.232772 C144.840287,118.909783 176.310859,45.2579602 188.5,2.84217094e-14 L135.543014,2.84217094e-14 Z" id="Leg" fill="#D4A181"></path>
                <path d="M35.3486334,133.076668 L40.2945258,151.544193 C98.6777422,156.666413 134.450428,152.965288 147.612584,140.440817 C160.77474,127.916347 175.775713,81.1027409 192.615502,-1.13686838e-13 L125.101325,-1.13686838e-13 C114.432031,66.4122319 108.467201,101.012304 107.206836,103.800216 C105.94647,106.588128 81.993736,116.346945 35.3486334,133.076668 Z" id="Pant" fill="#FF4133"></path>
                <g id="Accessories/Shoe/Flat-Sneaker" transform="translate(26.541667, 166.887029) rotate(80.000000) translate(-26.541667, -166.887029) translate(-6.500000, 145.213389)" fill="#E4E4E4">
                    <path d="M2.96094256,27.1399147 C1.70829233,30.4342817 1.08196721,32.8921755 1.08196721,34.5135961 C1.08196721,36.4521288 1.40700553,39.2809301 2.05708217,43 C4.3204911,43 24.6621283,43 63.0819937,43 C64.6678149,37.7910953 63.7523869,34.9789753 60.33571,34.5636399 C56.919033,34.1483045 54.0807414,33.7732899 51.8208352,33.4385961 L23.3766332,20.8396842 C22.8716664,20.6160171 22.2809919,20.8440556 22.0573248,21.3490224 C22.0541301,21.3562349 22.0510209,21.363485 22.0479978,21.3707711 L20.1929847,25.8415972 C17.0300354,27.3078511 14.4598108,28.040978 12.4823107,28.040978 C10.8456283,28.040978 8.57370805,27.3719638 5.66655006,26.0339355 L5.66654949,26.0339367 C4.66315575,25.5721217 3.47536936,26.011158 3.01355433,27.0145517 C2.99460141,27.0557311 2.97705402,27.0975429 2.96094256,27.1399147 Z" id="shoe"></path>
                </g>
            </g>
            <g id="Body/Long-Sleeve" transform="translate(165.500000, 198.000000) scale(-1, 1) rotate(21.000000) translate(-165.500000, -198.000000) translate(27.000000, 97.000000)">
                <path d="M207.75,70.5496233 L250.471706,64.7319962 C259.01778,59.9864671 266.879754,56.7738268 274.057627,55.0940755 C276.077555,55.0351986 279.290873,55.7682611 274.50392,59.7522447 C269.716968,63.7362283 264.85993,68.143346 265.71282,70.2695285 C266.56571,72.395711 271.017515,71.6046287 271.755003,74.8748782 C272.246662,77.0550445 265.021653,77.4092997 250.079977,75.937644 L215.414973,89.657754 L207.75,70.5496233 Z M73.5454389,80.4215832 L97.2391011,80.5103548 C71.2583574,138.878424 57.7115946,169.43902 56.5988128,172.192142 C54.0950536,178.386668 59.3933447,187.820823 61.6591043,192.890667 C54.2796009,196.187229 55.0658948,183.978715 45.7568498,188.302339 C37.2599851,192.248743 30.7964414,199.399363 20.979542,193.352209 C19.7726119,192.608747 18.4500132,189.809478 21.6455789,187.621997 C29.6068987,182.172185 41.0796427,172.634031 42.6297911,169.494474 C44.7436954,165.213127 55.0489113,135.522164 73.5454389,80.4215832 Z" id="Skin" fill="#D4A181"></path>
                <path d="M133.61068,10.453014 L152.19898,10.0652387 C160.346943,50.7754924 187.410233,74.5722556 242.147937,60.9255942 L254.153813,113.218947 C202.85992,124.451375 155.547295,107.696508 141.310912,52.3705319 C137.625562,38.0483846 134.396338,23.09038 133.61068,10.453014 Z" id="Clothes-Back" fill="#AFB9C5" transform="translate(193.882247, 63.292104) rotate(5.000000) translate(-193.882247, -63.292104) "></path>
                <path d="M129.292798,0.0172181275 L157.400494,6.44377469 C157.400494,54.7068116 172.800418,85.4994263 180.699219,120.983957 L104.78786,120.983957 C103.718516,133.245356 103.061841,145.847851 102.719651,158.791444 L45.8798949,158.791444 C58.7601023,90.3749764 85.9458626,37.4444951 127.437176,0 L129.278015,0 L129.292798,0.0172181275 Z" id="Clothes" fill="#C5CFD6"></path>
                <path d="M116.764647,52.1303121 C114.808345,82.2048492 115.958902,105.156064 120.216318,120.983957 L104.78786,120.983957 C106.906228,96.6941617 110.644054,73.7429505 116.764644,52.1303236 Z" id="Shade" fill-opacity="0.1" fill="#000000"></path>
            </g>
        </g>
        <g id="Hero-Image" transform="translate(874.000000, 27.000000)">
            <g id="Head/Front/Rad" transform="translate(439.236817, 161.775189) rotate(32.000000) translate(-439.236817, -161.775189) translate(302.101841, 57.052967)">
                <g id="Head" stroke-width="1" transform="translate(108.952364, 62.476071)" fill="#D4A181">
                    <path d="M16.6702642,69.5099233 C7.3731784,58.6093586 1.08071624,45.2505663 2.13219036,30.2816558 C5.16178008,-12.8479433 65.2675717,-3.35998097 76.9593926,18.408137 C88.6512134,40.1762549 87.2619212,95.3928912 72.1512845,99.2834611 C66.1251834,100.835015 53.2877964,97.0343293 40.2223314,89.1680782 L48.4232727,147.121071 L0,147.121071 L16.6702642,69.5099233 Z"></path>
                </g>
                <path d="M192.495862,78.4008211 C194.059889,76.8526565 194.913029,74.6429122 195.65103,72.5446679 C196.417444,70.3650045 197.16213,68.1628808 197.670968,65.8941779 C198.687716,61.361184 198.697372,56.1481608 195.459937,52.6282923 C192.863563,49.8056994 188.967794,48.5396939 185.372315,48.2645537 C182.976876,48.0810601 180.516625,48.4161616 178.220354,49.1701899 C175.942097,49.9182021 173.978242,51.4090124 171.769625,52.3343015 C171.685314,47.4493608 170.847588,42.3380112 168.366538,38.166991 C165.979085,34.1537954 162.172642,31.9017373 157.837676,31.3059346 C153.388314,30.6944898 148.994664,31.7344874 145.011428,33.8860752 C144.01418,34.4249247 143.026217,34.9894433 142.080781,35.628362 C141.28911,36.1634013 140.466055,36.8077346 139.537147,37.0253199 C138.501643,37.2681732 137.988348,36.6707661 137.315345,35.9161361 C136.526275,35.0313561 135.637294,34.2520597 134.6965,33.5612013 C130.536656,30.5069854 125.078718,29.2512073 120.259427,31.081932 C118.038925,31.925401 115.879706,33.3578543 114.373248,35.3317642 C113.030398,37.0912974 112.07252,39.8824055 110.219161,41.1083032 C109.43269,41.6287031 108.87724,40.9392485 108.161152,40.4296777 C107.085535,39.6640181 106.059688,38.8191453 104.971072,38.0743418 C103.441958,37.0279269 101.786377,36.2452214 100.013429,35.8355193 C97.4179836,35.2357058 93.8312324,35.3762839 93.0891459,38.771818 C92.8105849,40.047249 93.0241483,41.4113183 93.1142164,42.6963752 C93.2377118,44.4609219 93.3665926,46.2248669 93.5199869,47.9868066 C93.6364254,49.3246053 93.7836913,50.616681 94.036439,51.930415 C94.1712625,52.6306988 94.5931895,53.9362106 94.2925294,54.6374971 C93.9168434,55.5140551 92.1828942,55.0157145 91.4421076,55.0461965 C89.9789196,55.1065589 88.5096033,55.3628483 87.1567254,55.9873282 C86.1082219,56.4714304 85.0058632,57.1833455 84.5633227,58.3837747 C84.2912614,59.1211583 84.3629445,59.8785958 84.4914539,60.6372366 C84.645591,61.5476857 84.4693548,62.0305847 84.3542162,62.949256 C82.3890613,61.9826558 75.5791738,59.8350787 74.7223202,63.3529419 C74.4370737,64.5242929 75.0866779,65.8478533 75.5823308,66.8357106 C76.4516268,68.5683715 77.5913126,70.1520316 78.7564404,71.6622943 C81.1867921,74.8129697 84.0882833,77.5304799 87.2100234,79.8545316 C83.5525177,81.4787007 82.5977964,86.2693877 85.7644776,89.1236658 C87.1626681,90.3838558 89.0425833,90.6644105 90.8062458,90.5837936 C91.4517644,90.5543143 92.3823438,90.3064475 92.8902534,90.4187496 C93.1636145,90.479112 93.4562893,90.7105346 93.8349465,90.7364041 C96.3239818,90.9066621 99.1337336,90.3076508 101.566871,89.7559667 C105.902394,88.7729223 110.006897,86.7212031 113.358729,83.5963973 C114.218554,82.7948411 114.928884,82.3333998 116.086212,82.3452317 C117.10036,82.3554592 118.09538,82.6332063 119.108599,82.6588754 C121.78947,82.7272593 124.206636,81.4181378 126.696043,80.5467938 C126.848509,83.9060303 127.806202,87.6057827 129.181921,90.6279123 C130.303779,93.0923417 132.646477,93.4505051 134.948505,93.6666867 C142.309944,94.3585478 149.697381,93.5864709 157.068105,93.5966984 C149.933043,95.2076319 142.560091,95.871618 135.488356,97.7673175 C132.291776,98.624022 134.732713,100.776011 136.099519,102.267824 C138.350106,104.724432 140.023515,107.76822 141.184186,110.974846 C144.674555,106.430221 150.843938,103.435766 156.309676,104.831921 C162.348878,106.37427 166.60139,114.532015 162.739606,120.396791 C160.497562,123.80135 156.448771,125.115685 153.079854,126.57842 C155.707984,129.307762 156.34366,133.338806 157.925515,136.73434 C158.705672,138.408844 159.800788,140.302137 161.545508,140.885707 C162.191027,141.101688 162.94797,141.120138 163.457179,141.645752 C164.088027,142.296502 164.238264,143.024059 165.043863,143.583364 C168.258456,145.815769 173.279797,145.643706 176.129104,142.73047 C178.705793,140.095782 178.03539,135.926567 175.883413,133.255381 C179.308971,131.829145 185.549851,129.99481 184.188431,124.66407 C191.611152,124.171746 209.633305,112.146999 199.67085,103.360162 C205.13826,100.27366 210.161271,92.7305685 206.64936,86.0812817 C203.94509,80.9611083 197.655926,78.6723515 192.495862,78.4008211" id="hair" fill="#191847" transform="translate(141.234545, 87.668036) scale(-1, 1) translate(-141.234545, -87.668036) "></path>
            </g>
            <g id="Bottom/Standing/Skirt" transform="translate(0.000000, 388.826816)">
                <path d="M196.439114,196.990178 C244.817633,210.465563 286.557156,217.203256 321.657685,217.203256 C356.758214,217.203256 389.361207,206.827329 419.466667,186.075474 C372.123886,172.244217 333.134997,165.328589 302.5,165.328589 C271.865003,165.328589 236.511374,175.882452 196.439114,196.990178 Z" id="Skirt-Shadow" fill="#1F28CF"></path>
                <path d="M363.538118,236.626475 C363.071634,235.928105 362.677686,235.168418 362.365216,234.345498 C355.898584,217.314995 252.319051,33.5898719 242,0 L358.615943,0 C366.461663,25.5388539 401.774486,185.807338 406.744163,217.783263 C422.424407,268.221821 454.708462,431.573898 458.829788,442.890431 C463.165352,454.795231 438.770571,467.196955 432.269936,452.561479 C421.926329,429.273966 397.280608,364.837836 386.30689,325.493585 C376.019052,288.608434 367.642005,255.424503 363.538118,236.626475 Z" id="Leg" fill="#D4A181"></path>
                <path d="M268.130075,259.057705 C220.775215,270.976715 47.5611246,292.524177 35.6744151,295.903841 C23.4466995,299.380462 12.7253327,274.280979 27.8394495,268.844006 C51.8885613,260.192863 118.15475,240.204028 158.332179,232.04698 C190.64847,225.485943 220.137483,220.132146 239.935629,216.997022 C238.258376,161.614727 230.591224,28.7057128 235.61662,1.42108547e-14 L338.8,1.42108547e-14 C333.980983,27.5268484 293.243727,228.379168 285.672126,248.483917 C283.269271,255.661447 276.099653,258.833386 268.130075,259.057705 Z" id="Leg" fill="#D4A181"></path>
                <g id="Accessories/Shoe/Flat-Sneaker" transform="translate(49.408333, 315.302938) rotate(80.000000) translate(-49.408333, -315.302938) translate(-12.100000, 275.136959)" fill="#E4E4E4">
                    <path d="M6.41747644,48.9346948 C3.49466902,56.2508639 2.03326531,61.6106267 2.03326531,65.0139834 C2.03326531,68.665638 2.64408709,73.9943102 3.86573065,81 C8.11919673,81 46.3458127,81 118.545579,81 C121.525701,71.1878772 119.805402,65.8906278 113.38468,65.1082519 C106.963958,64.325876 101.630155,63.6194531 97.383271,62.9889834 L42.9300509,38.8121474 C42.5211882,38.6306153 42.0425787,38.8149032 41.8610466,39.2237659 C41.8582643,39.2300324 41.8555617,39.2363339 41.8529395,39.242669 L37.9472637,48.6783575 C32.0033544,51.4403706 27.173311,52.8213772 23.4571335,52.8213772 C20.0132958,52.8213772 15.0728336,51.2414085 8.63574685,48.0814712 L8.63574878,48.0814673 C7.83259794,47.6872041 6.86190208,48.018673 6.4676389,48.8218238 C6.44948935,48.8587962 6.43275637,48.8964472 6.41747644,48.9346948 Z" id="shoe"></path>
                </g>
                <g id="Accessories/Shoe/Flat-Sneaker" transform="translate(419.466667, 399.651495)" fill="#E4E4E4">
                    <path d="M6.41747644,48.9346948 C3.49466902,56.2508639 2.03326531,61.6106267 2.03326531,65.0139834 C2.03326531,68.665638 2.64408709,73.9943102 3.86573065,81 C8.11919673,81 46.3458127,81 118.545579,81 C121.525701,71.1878772 119.805402,65.8906278 113.38468,65.1082519 C106.963958,64.325876 101.630155,63.6194531 97.383271,62.9889834 L42.9300509,38.8121474 C42.5211882,38.6306153 42.0425787,38.8149032 41.8610466,39.2237659 C41.8582643,39.2300324 41.8555617,39.2363339 41.8529395,39.242669 L37.9472637,48.6783575 C32.0033544,51.4403706 27.173311,52.8213772 23.4571335,52.8213772 C20.0132958,52.8213772 15.0728336,51.2414085 8.63574685,48.0814712 L8.63574878,48.0814673 C7.83259794,47.6872041 6.86190208,48.018673 6.4676389,48.8218238 C6.44948935,48.8587962 6.43275637,48.8964472 6.41747644,48.9346948 Z" id="shoe"></path>
                </g>
                <path d="M235.95,7.10542736e-15 C281.41946,-12.9550126 324.441682,-12.9550126 365.016667,7.10542736e-15 C379.133333,64.1399845 413.434696,89.597194 419.466667,187.93446 C350.9,221.862258 266.2,163.737533 195.616667,196.823965 C175.45,150.544315 203.683333,39.0905717 235.95,7.10542736e-15 Z" id="Skirt" fill="#2B44FF"></path>
            </g>
            <g id="Body/Jacket" transform="translate(335.135338, 392.181402) rotate(21.000000) translate(-335.135338, -392.181402) translate(77.396726, 204.131820)">
                <path d="M391.041669,179.755974 L448.128554,235.494535 C464.738733,242.585762 478.348409,250.415909 488.957582,258.984976 C491.343426,261.865331 493.940806,267.38424 482.715528,264.914607 C471.49025,262.444974 459.57197,260.352569 457.4622,264.006257 C455.35243,267.659945 461.56904,273.258693 457.669923,278.04043 C455.070512,281.228255 446.328487,271.088408 431.443848,247.620889 L372.081037,212.591889 L391.041669,179.755974 Z M137.655325,187.616809 L179.768112,187.782561 C153.765409,271.796079 139.727813,316.373124 137.655325,321.513699 C132.992225,333.079992 142.85997,350.695257 147.07981,360.161568 C133.335933,366.316842 134.800358,343.52135 117.462828,351.594335 C101.637934,358.962981 89.5999772,372.314475 71.3165992,361.023349 C69.0687653,359.635172 66.6055056,354.408433 72.5570525,350.324013 C87.3845263,340.148234 108.751814,322.338786 111.638871,316.476668 C115.575889,308.482623 124.248041,265.529337 137.655325,187.616809 Z" id="Skin" fill="#D4A181"></path>
                <path d="M245.884778,18.6139671 L262.983575,14.1151078 C299.408682,86.2258255 357.529339,149.558267 437.345546,204.112433 L387.056521,277.464647 C304.98433,197.024345 251.235253,111.326244 245.884778,18.6139671 Z" id="Coat-Back" fill="#191847" transform="translate(341.615162, 145.789878) rotate(5.000000) translate(-341.615162, -145.789878) "></path>
                <path d="M181.369565,229.932715 L336.541304,229.932715 C300.591578,142.447647 282.616715,68.1301196 282.616715,6.98013258 L235.809067,0 C199.022654,59.2145456 188.634074,132.119641 181.369565,229.932715 Z" id="Shirt" fill="#DDE3E9"></path>
                <path d="M234.818037,0.0331181103 C234.824183,0.0220768209 234.830328,0.0110374506 234.836472,8.3864084e-15 L237.891883,-4.26362436e-14 C241.547947,0.126005419 247.116601,0.353029199 254.597846,0.681071341 L265.908253,33.0314079 C267.104644,72.4740312 274.091382,151.96156 286.868466,271.493994 L185.150278,271.493994 C185.416931,279.749606 185.8566,288.082336 186.469284,296.492185 L110.836957,296.492185 C122.150219,168.746335 163.464837,69.915607 234.780812,1.42108547e-14 L234.818037,0.0331180975 Z" id="Coat-Front" fill="#2F3676"></path>
                <path d="M191.869312,165.860353 C194.764198,217.322504 202.012109,252.798633 213.613043,272.288742 L185.176474,272.288742 C183.931531,235.26323 186.162478,199.787142 191.869309,165.860367 Z" id="Shade" fill-opacity="0.1" fill="#000000"></path>
                <polygon id="Light" fill-opacity="0.2" fill="#FFFFFF" points="207.790877 209.763179 257.947826 186.425556 257.947826 209.763179"></polygon>
            </g>
        </g>
        <g id="Hero-Image" transform="translate(382.064740, 675.706416) rotate(-10.000000) translate(-382.064740, -675.706416) translate(239.564740, 475.706416)">
            <g id="Head/Front/Short-1" transform="translate(76.379664, 0.485453)">
                <g id="Head" stroke-width="1" transform="translate(51.220588, 29.211538)" fill="#D4A181">
                    <path d="M7.83700978,32.5003118 C3.46627207,27.4036042 0.508065356,21.1575188 1.00238343,14.1586008 C2.42665146,-6.00723093 30.6835327,-1.57100489 36.1800812,8.60697525 C41.6766296,18.7849554 41.0234967,44.6022461 33.9196976,46.421335 C31.0867124,47.1467852 25.0516114,45.3697228 18.9092867,41.6917499 L22.7647059,68.7884615 L0,68.7884615 L7.83700978,32.5003118 Z"></path>
                </g>
                <path d="M77.3608162,39.2946167 C74.2715789,41.0113241 72.0730676,44.228116 69.426593,48.447591 C68.7820321,48.19591 68.080058,48.0576923 67.3455882,48.0576923 C64.2024383,48.0576923 61.6544118,50.5890055 61.6544118,53.7115385 C61.6544118,55.2967057 62.311071,56.7295079 63.3688929,57.7561247 C62.0520318,59.6026729 60.5762084,61.5316399 58.8850723,63.5220831 C52.5741759,59.7606374 47.8802845,48.7977854 53.9059797,38.2145798 C59.0904375,17.0156519 88.4677763,30.1735956 94.1197322,26.5983096 C95.3551417,34.2910343 91.3703653,40.4938442 77.3608162,39.2946167 Z" id="Hair" fill="#191847"></path>
            </g>
            <g id="Bottom/Standing/Sprint" transform="translate(0.273968, 173.325707)">
                <path d="M196.323231,-9.18462833 C178.239776,5.5613362 185.190265,134.936204 183.983583,136.564352 C183.447281,137.287973 154.780309,143.432663 97.9826683,154.998421 L100.439808,165.0127 C166.883985,161.748682 202.04111,157.650738 205.911183,152.718867 C211.452018,145.65784 218.283999,106.155241 226.407125,34.2110706 L196.323231,-9.18462833 Z" id="Leg" fill="#D4A181" transform="translate(162.194897, 77.914036) rotate(-55.000000) translate(-162.194897, -77.914036) "></path>
                <path d="M107.564662,144.46441 L111.89185,160.593325 C161.425175,166.308908 194.073593,159.283629 205.560895,148.352771 C213.219096,141.065533 220.068781,101.670313 226.109948,30.1671127 L193.927681,-15.7939271 C150.87982,16.6856033 176.605514,123.097553 175.506258,125.531499 C174.407001,127.965445 148.286992,129.876737 107.564662,144.46441 Z" id="Pant" fill="#2F3676" transform="translate(166.837305, 73.417987) rotate(-55.000000) translate(-166.837305, -73.417987) "></path>
                <g id="Accessories/Shoe/Flat-Sneaker" transform="translate(211.470106, 177.092391) rotate(20.000000) translate(-211.470106, -177.092391) translate(182.596773, 158.180257)" fill="#E4E4E4">
                    <path d="M2.50800092,24.2346094 C1.46988009,27.0203119 0.950819672,29.1089045 0.950819672,30.5003873 C0.950819672,32.2135092 1.23645941,34.7133801 1.80773888,38 C3.79679521,38 21.6727794,38 55.4356915,38 C56.8292918,33.3967819 56.0248249,30.9116526 53.0222906,30.544612 C50.0197563,30.1775714 47.5255,29.8461632 45.5395218,29.5503873 L20.6595211,18.4683207 C20.1550199,18.2436054 19.5638731,18.4704167 19.3391578,18.974918 C19.3353983,18.9833584 19.3317559,18.9918505 19.3282318,19.0003919 L17.7453502,22.8367603 C14.9657887,24.1325195 12.7071064,24.7803992 10.9693034,24.7803992 C9.5745413,24.7803992 7.65482233,24.2244261 5.21014647,23.11248 L5.21014351,23.1124865 C4.20469716,22.6551653 3.01888975,23.0995085 2.56156853,24.1049549 C2.54220197,24.1475333 2.52433511,24.1907781 2.50800092,24.2346094 Z" id="shoe"></path>
                </g>
                <polygon id="Leg" fill="#BA8B72" points="123.066667 0 74.080489 117.469797 25.9347007 216.780609 37.2938504 216.780609 161.571091 0"></polygon>
                <g id="Accessories/Shoe/Flat-Sneaker" transform="translate(22.720000, 188.175732)" fill="#E4E4E4">
                    <path d="M2.50800092,24.2346094 C1.46988009,27.0203119 0.950819672,29.1089045 0.950819672,30.5003873 C0.950819672,32.2135092 1.23645941,34.7133801 1.80773888,38 C3.79679521,38 21.6727794,38 55.4356915,38 C56.8292918,33.3967819 56.0248249,30.9116526 53.0222906,30.544612 C50.0197563,30.1775714 47.5255,29.8461632 45.5395218,29.5503873 L20.6595211,18.4683207 C20.1550199,18.2436054 19.5638731,18.4704167 19.3391578,18.974918 C19.3353983,18.9833584 19.3317559,18.9918505 19.3282318,19.0003919 L17.7453502,22.8367603 C14.9657887,24.1325195 12.7071064,24.7803992 10.9693034,24.7803992 C9.5745413,24.7803992 7.65482233,24.2244261 5.21014647,23.11248 L5.21014351,23.1124865 C4.20469716,22.6551653 3.01888975,23.0995085 2.56156853,24.1049549 C2.54220197,24.1475333 2.52433511,24.1907781 2.50800092,24.2346094 Z" id="shoe"></path>
                </g>
                <path d="M30.2824929,196.149929 L55.5226493,200.877962 C75.0382675,172.218501 156.711926,54.7050863 165.666667,2.84217094e-14 L109.476389,2.84217094e-14 C79.5719536,39.5462384 48.8849074,167.016385 30.2824929,196.149929 Z" id="Pant" fill="#5C63AB"></path>
            </g>
            <g id="Body/Hoodie" transform="translate(19.374347, 76.147272)">
                <path d="M180.347858,87.28039 L210.501692,109.45139 C218.680033,111.66103 225.512772,114.410195 230.99991,117.698885 C232.296067,118.881477 233.862595,121.276422 228.487117,120.862516 C223.11164,120.448609 217.438853,120.255307 216.697141,122.091149 C215.95543,123.926991 219.208378,126.122457 217.709056,128.599489 C216.709508,130.250843 211.987242,126.110133 203.542258,116.177358 L173.682052,103.779215 L180.347858,87.28039 Z M64.5723382,88.0455657 L84.3269039,88.1233507 C72.1293711,127.54955 65.5445159,148.468844 64.5723382,150.881233 C62.3849385,156.30911 67.0137705,164.575671 68.9932427,169.01806 C62.5461675,171.906631 63.2331103,161.209072 55.1002984,164.997594 C47.6770448,168.455582 42.0301943,174.721224 33.4536973,169.42248 C32.3992674,168.77103 31.2437841,166.318206 34.035578,164.401453 C40.9909548,159.626122 51.0140741,151.268433 52.3683554,148.517435 C54.2151598,144.765958 58.2831541,124.608668 64.5723382,88.0455657 Z" id="Skin" fill="#D4A181"></path>
                <path d="M116.013618,9.06307231 L124.034392,6.95212866 C156.534151,30.442277 173.336284,79.5621193 212.697266,102.917985 L204.751364,114.761011 C139.807039,112.416936 118.525049,52.5714128 116.013618,9.06307231 Z" id="Coat-Back" fill="#E87613" transform="translate(164.355442, 60.856570) rotate(5.000000) translate(-164.355442, -60.856570) "></path>
                <path d="M85.078125,107.903743 C117.853769,107.903743 141.962846,107.903743 157.405356,107.903743 C160.710341,107.903743 160.08758,103.125346 159.609824,100.714141 C154.095946,72.8859178 132.571858,42.8884398 132.571858,3.27566451 L111.70928,0 C94.4532475,27.7884385 88.4858124,62.0016328 85.078125,107.903743 Z" id="Shirt" fill="#DDE3E9"></path>
                <path d="M85.6593422,27.3147522 C82.6293145,26.4426532 80.2298463,24.408646 78.4609375,21.2127308 C70.8356281,7.43596478 73.5894842,-0.149165364 81.7385216,-2.64244047 C89.887559,-5.13571558 97.154794,-1.9095836e-14 110.138389,-6.21724894e-15 C110.844588,-5.32907052e-15 111.491388,0.0443281207 112.078786,0.132984362 L118.60986,0.506144225 C137.348221,64.094061 142.516149,106.518929 134.113645,127.780749 L77.1864805,127.780749 C73.8136065,135.655707 70.5860508,142.281375 67.5038133,147.657754 L51.9921875,147.657754 C50.5323255,100.395054 61.7547104,60.28072 85.6593422,27.3147522 Z" id="Coat-Front" fill="#FF9B21"></path>
                <path d="M89.5827551,95.1234278 C91.3731033,110.122418 94.2830183,121.008191 98.3125,127.780749 L77.1864805,127.780749 C81.1208437,118.59483 85.2529353,107.709056 89.5827551,95.1234278 Z" id="Shade" fill-opacity="0.1" fill="#000000"></path>
            </g>
        </g>
        <g id="Hero-Image" transform="translate(755.000000, 55.500000) rotate(-160.000000) translate(-755.000000, -55.500000) translate(598.000000, -165.000000)">
            <g id="Head/Front/Wavy" transform="translate(76.556516, 0.296840)">
                <g id="Head" stroke-width="1" transform="translate(56.232000, 32.305263)" fill="#D4A181">
                    <path d="M8.6037812,35.9423426 C3.80541141,30.3058549 0.557774366,23.3982614 1.10045642,15.6581046 C2.66407454,-6.64344249 33.6856032,-1.73738628 39.7199328,9.51851957 C45.7542624,20.7744254 45.0372272,49.3259641 37.2383938,51.3377084 C34.1282299,52.1399893 27.5026559,50.1747224 20.7593674,46.1072242 L24.992,76.0736842 L0,76.0736842 L8.6037812,35.9423426 Z"></path>
                </g>
                <path d="M98.3113387,46.8776805 C98.0637809,45.4186813 97.4587649,43.7984784 96.9705885,42.4181281 C96.3412041,40.6386746 95.3887356,39.0342726 94.3405684,37.5221898 C92.3672061,34.6753837 89.9999137,32.1046477 87.3861931,29.9710079 C82.6119086,26.0737153 76.5344756,23.8257415 70.5580669,24.5557738 C67.5405719,24.9243406 64.6113521,26.0762008 62.1181828,27.993423 C59.8656321,29.7256517 57.6989358,32.2756159 54.7821423,32.4588341 C51.6084309,32.6580306 48.6992224,29.8547211 46.1539271,28.1233801 C43.2840954,26.1715382 40.2310967,24.7492891 36.8769618,24.1964388 C31.2580111,23.2705833 25.9794122,25.1704069 22.1069227,29.7838838 C17.9860684,34.693315 14.9905212,41.8929736 17.6967129,48.3979299 C18.1997363,49.6071346 18.8468727,50.6265521 19.7756182,51.4714508 C20.6273851,52.2462223 21.9282743,53.0705267 22.2736289,54.3084923 C22.640447,55.6243967 21.5446726,57.3220057 21.1197574,58.5093732 C20.5110297,60.2105329 20.0112339,61.9962002 20.1889139,63.8452483 C20.4808515,66.8818414 22.387725,69.7806658 24.4012711,71.776537 C26.4503209,73.8075605 28.9722159,74.9722033 31.66582,75.5090752 C33.4644071,75.8675225 35.3025324,76.0652987 37.1304907,75.9307256 C38.037934,75.8639717 38.8387047,75.6116916 39.7179063,75.4110748 C40.5729009,75.2159616 41.0507489,75.443209 41.7761548,75.9124393 C45.1459437,78.0925939 48.7692615,78.9360723 52.6603098,78.6118897 C55.9442442,78.3381276 59.7292654,77.5416965 62.4081838,75.2899946 C65.3832357,72.7892081 65.324009,69.3407291 64.6239398,65.6563034 C65.3656452,66.0241601 67.4175999,66.2519401 66.1914299,64.7856619 C65.7056742,64.2049383 64.7879025,63.9686365 64.1646506,63.6270553 C63.4389219,63.2293724 62.7020579,62.7154027 62.1385168,62.0666824 C59.86305,59.4473013 62.1612715,54.1165748 65.0212589,53.2381216 C69.2704108,51.933047 70.2217496,57.9467584 73.2550599,59.5023378 C74.9991003,60.3967693 76.8235083,59.1742494 78.1302072,57.9259866 C79.8805415,56.2537654 81.0734671,54.0384585 82.1033983,51.7840935 C82.9517762,49.9275889 83.7412502,48.0449864 84.6059276,46.1977137 C85.009702,45.3350613 86.407581,42.8964129 85.7055752,41.9210245 C88.7490525,41.3136704 92.1388525,42.5793317 94.7599967,44.2391253 C95.8433448,44.9253059 96.6692909,45.6817911 97.2471949,46.8931262 C97.3709738,47.1526853 97.6404795,47.9242612 97.9788946,47.9558628 C98.6089246,48.0148051 98.3734703,47.2442944 98.3113387,46.8776805" id="hair" fill="#191847"></path>
            </g>
            <g id="Bottom/Standing/Skinny-Jeans-Walk" transform="translate(0.301845, 191.714805)">
                <polygon id="Leg" fill="#1F28CF" points="133.546667 0 183.711844 132.499811 218.87394 230.159316 238.923333 230.159316 190.589548 1.02211269e-13"></polygon>
                <path d="M121.148349,0 C120.603051,45.4634309 120.997279,106.672561 119.726747,109.50652 C118.879726,111.395826 92.5341436,132.922009 40.69,174.085067 L51.0241961,191.625856 C112.575125,152.004915 144.924008,129.555053 148.070844,124.27627 C152.7911,116.358094 176.505291,43.4940046 188.843333,0 L121.148349,0 Z" id="Leg" fill="#2B44FF"></path>
                <g id="Accessories/Shoe/Flat-Pointy" transform="translate(58.948333, 196.833080) rotate(50.000000) translate(-58.948333, -196.833080) translate(27.126667, 176.004183)" fill="#191847">
                    <path d="M0,42 L1.05074627,19.95 L23.1164179,19.95 C33.5793324,27.3 47.2390339,33.25 64.0955224,37.8 L64.0955224,42 L24.1671642,42 L10.5074627,39.9 L10.5074627,42 L0,42 Z" id="Shoe"></path>
                </g>
                <g id="Accessories/Shoe/Flat-Pointy" transform="translate(217.013333, 207.247529)" fill="#191847">
                    <path d="M0,42 L1.05074627,19.95 L23.1164179,19.95 C33.5793324,27.3 47.2390339,33.25 64.0955224,37.8 L64.0955224,42 L24.1671642,42 L10.5074627,39.9 L10.5074627,42 L0,42 Z" id="Shoe"></path>
                </g>
            </g>
            <g id="Body/Trench-Coat" transform="translate(21.345771, 84.842761)">
                <path d="M205.895131,93.9679088 L237.334175,120.615526 C246.153037,123.668806 253.451594,127.210775 259.229848,131.241433 C260.563628,132.638815 262.101507,135.38742 256.22532,134.52016 C250.349133,133.6529 244.129254,133.004889 243.17316,134.962572 C242.217067,136.920254 245.623729,139.579528 243.785763,142.182646 C242.560453,143.918058 237.688234,139.011155 229.169108,127.461935 L197.30266,111.561717 L205.895131,93.9679088 Z M56.6307836,73.3488333 L74.6963348,77.9402886 C50.5133438,118.587266 37.5811304,140.068731 35.8996948,142.384684 C32.1164646,147.595578 34.864243,157.652892 35.79779,162.92224 C28.1368532,164.287541 31.7188316,153.051881 22.0162564,154.928591 C13.1601956,156.641566 5.45575435,161.824838 -2.30215011,153.883449 C-3.25593888,152.907102 -3.83823986,149.981015 -0.343543705,148.678997 C8.36301887,145.435195 21.3026449,139.18502 23.4826904,136.609453 C26.4555719,133.097208 37.5049363,112.010335 56.6307836,73.3488333 Z" id="Skin" fill="#D4A181" transform="translate(128.713765, 118.193245) rotate(-4.000000) translate(-128.713765, -118.193245) "></path>
                <path d="M211.756091,91.2956808 C216.030458,90.9888837 220.679922,91.6968257 225.664785,93.3760481 C228.117686,94.2023428 229.436165,96.8602223 228.60969,99.3125881 C228.12968,100.736902 227.031707,101.778637 225.71495,102.239861 C226.668773,102.935564 227.631047,103.627427 228.601873,104.31538 L220.220825,121.421186 C184.952941,103.840417 151.804504,90.5854747 136.699495,61.5610396 C131.629864,51.8196888 133.34579,18.730494 132.861896,6.69278387 L144.000654,2.12567862 C159.52765,34.2140537 180.541163,64.9989549 211.756091,91.2956808 Z" id="Back-Arm" fill="#69A1AC"></path>
                <path d="M93.7340426,118.609905 C126.476725,122.206084 152.248807,122.206084 171.05029,118.609905 C173.379668,118.164362 173.277374,108.125078 172.197128,105.383255 C155.374886,62.6859322 144.30908,31.4294901 144.30908,1.77289179 C141.222411,3.384862 135.820448,3.62643589 128.103191,2.49761345 C107.363182,33.0596916 97.8297388,68.1261796 93.7340426,118.609905 Z" id="Shirt" fill="#191847"></path>
                <path d="M87.6503182,123.657851 C86.5384609,122.611729 85.9588077,121.043535 86.2436456,119.427786 C86.2436659,119.427672 86.2436861,119.427557 86.2437063,119.427442 L86.7859308,116.353005 C87.1536918,114.267784 88.8472254,112.749361 90.8467839,112.511771 C91.1963284,110.949589 91.4977035,109.397877 91.7466071,107.857526 C93.8491603,94.8457848 90.2568374,82.0873502 90.4255457,69.5585031 C73.6782884,83.8440384 58.6546816,108.511169 45.3547254,143.559895 L25.6843381,137.773014 C26.4348747,134.985295 27.2122985,132.231815 28.0166097,129.512574 C25.7462476,128.223062 23.0933222,122.312874 25.0026227,121.323866 C26.974508,120.30244 29.0634878,119.583526 31.2634086,119.160387 C49.2993038,64.8488958 78.7934811,25.128767 119.745941,-4.05009359e-13 L125.371665,-3.97903932e-13 L131.59054,-1.0658141e-14 C128.103191,46.1078583 176.271701,146.771 159.546373,232.740946 C128.632119,239.643137 84.4980217,218.168123 41.5375254,235.325243 C43.1360888,200.704174 75.1572397,160.032286 87.650322,123.657841 Z" id="Coat-Front" fill="#89C5CC"></path>
                <polygon id="Shade-Lapel" fill-opacity="0.1" fill="#000000" points="124.047381 1.04126214 118.674175 17.5613494 129.494618 29.9457031 119.715665 39.6778211 143.37377 80.1771845 114.442586 39.7587328 124.047381 29.9457031 114.442586 19.0014286"></polygon>
                <path d="M136.435106,95.7961165 C134.134312,95.7961165 132.269149,93.9313608 132.269149,91.631068 C132.269149,89.3307752 134.134312,87.4660194 136.435106,87.4660194 C138.735901,87.4660194 140.601064,89.3307752 140.601064,91.631068 C140.601064,93.9313608 138.735901,95.7961165 136.435106,95.7961165 Z M141.642553,119.745146 C139.341758,119.745146 137.476596,117.88039 137.476596,115.580097 C137.476596,113.279804 139.341758,111.415049 141.642553,111.415049 C143.943348,111.415049 145.808511,113.279804 145.808511,115.580097 C145.808511,117.88039 143.943348,119.745146 141.642553,119.745146 Z M142.684043,143.694175 C140.383248,143.694175 138.518085,141.829419 138.518085,139.529126 C138.518085,137.228833 140.383248,135.364078 142.684043,135.364078 C144.984837,135.364078 146.85,137.228833 146.85,139.529126 C146.85,141.829419 144.984837,143.694175 142.684043,143.694175 Z" id="Buttons" fill-opacity="0.4" fill="#000000"></path>
            </g>
        </g>
    </g>
</svg>