<?xml version="1.0" encoding="UTF-8"?>
<svg width="960px" height="480px" viewBox="0 0 960 480" version="1.1" xmlns="http://www.w3.org/2000/svg" xmlns:xlink="http://www.w3.org/1999/xlink">
    <!-- Generator: Sketch 52.5 (67469) - http://www.bohemiancoding.com/sketch -->
    <title>image1</title>
    <desc>Created with Sketch.</desc>
    <g id="image1" stroke="none" stroke-width="1" fill="none" fill-rule="evenodd">
        <g id="Background" opacity="0.100000001" transform="translate(520.000000, 240.500000) scale(1, -1) rotate(90.000000) translate(-520.000000, -240.500000) translate(367.000000, -83.000000)">
            <ellipse id="Oval" fill="#2B44FF" cx="270.046997" cy="614.210136" rx="32.7571802" ry="32.789864"></ellipse>
            <polygon id="Polygon" fill="#2B44FF" points="127.832898 0 166.981723 39.1878863 127.832898 78.3757726 88.6840731 39.1878863"></polygon>
            <polygon id="Polygon" fill="#FF9B21" points="19.1749347 551.829419 38.3498695 571.023486 19.1749347 590.217553 0 571.023486"></polygon>
            <polygon id="Polygon" fill="#2026A2" points="296.412533 50.3844252 306 59.9814586 296.412533 69.578492 286.825065 59.9814586"></polygon>
        </g>
        <g id="Background-Shape-2" transform="translate(149.000000, 326.000000)" fill="#111111" opacity="0.04">
            <path d="M661.71121,79.3220178 C671.360993,114.775587 437.337348,137.900737 235.907772,121.762252 C34.4781963,105.623768 -57.9281424,42.6011652 38.190693,9.02024514 C134.309528,-24.5606749 652.061428,43.8684486 661.71121,79.3220178 Z" id="Background-Shape"></path>
        </g>
        <g id="Image" transform="translate(202.000000, 32.000000)">
            <g id="Group-3" transform="translate(278.500000, 193.000000) scale(-1, 1) translate(-278.500000, -193.000000) ">
                <g id="Humaaan" transform="translate(423.500000, 193.000000) scale(-1, 1) translate(-423.500000, -193.000000) translate(290.000000, 1.000000)">
                    <g id="Head/Front/Rad" transform="translate(114.043637, 54.620196) rotate(-8.000000) translate(-114.043637, -54.620196) translate(53.523637, 8.479350)">
                        <g id="Head" stroke-width="1" transform="translate(48.044118, 27.423077)" fill="#D4A181">
                            <path d="M7.35099367,30.5104968 C3.25130946,25.7258325 0.476557427,19.8621605 0.940220121,13.2917477 C2.27616145,-5.63944128 28.780678,-1.47482091 33.9363552,8.08001758 C39.0920324,17.6348561 38.4794039,41.8714963 31.8161505,43.5792125 C29.1588542,44.2602473 23.4980231,42.5919847 17.7366177,39.1391938 L21.3529412,64.5769231 L0,64.5769231 L7.35099367,30.5104968 Z"></path>
                        </g>
                        <path d="M84.8838294,34.4130432 C85.5735097,33.7334961 85.9497138,32.7635569 86.275146,31.8425593 C86.6131074,30.8858238 86.9414876,29.9192295 87.1658671,28.9234113 C87.6142166,26.9337113 87.6184749,24.6455211 86.1908809,23.1005195 C85.0459722,21.8615783 83.328077,21.3058812 81.7425984,21.185112 C80.6862951,21.1045698 79.601412,21.2516583 78.5888382,21.5826295 C77.5842077,21.9109599 76.7182175,22.5653321 75.7442958,22.971476 C75.7071176,20.8272934 75.3377104,18.5837315 74.2436556,16.7529153 C73.1908736,14.9913741 71.5123676,14.0028618 69.6008017,13.7413418 C67.6387914,13.4729559 65.7013482,13.9294496 63.9448826,14.8738617 C63.5051316,15.1103829 63.069475,15.3581711 62.6525714,15.6386164 C62.3034729,15.873465 61.940535,16.1562869 61.5309196,16.2517932 C61.0742992,16.3583906 60.8479543,16.0961664 60.5511838,15.7649311 C60.2032318,15.3765682 59.8112228,15.034506 59.3963664,14.7312625 C57.5620231,13.3906532 55.1552664,12.8394454 53.0301306,13.6430187 C52.050968,14.0132487 51.0988292,14.6420059 50.4345349,15.5084285 C49.8423859,16.2807532 49.4199956,17.5058746 48.6027302,18.0439668 C48.2559246,18.2723898 48.0109907,17.9697624 47.6952216,17.7460928 C47.2209128,17.4100162 46.7685507,17.0391701 46.2885096,16.7122481 C45.6142246,16.2529376 44.8841724,15.9093789 44.1023654,15.7295454 C42.9578663,15.4662649 41.3762365,15.5279699 41.0490028,17.0183964 C40.9261673,17.5782306 41.0203412,18.1769715 41.060058,18.7410308 C41.114515,19.5155561 41.1713469,20.2898174 41.2389883,21.0631984 C41.2903336,21.6504081 41.3552726,22.2175483 41.4667253,22.7941952 C41.5261777,23.1015758 41.7122325,23.6746136 41.5796521,23.9824344 C41.413988,24.3671884 40.649378,24.1484481 40.3227175,24.1618278 C39.6775036,24.1883231 39.0295873,24.3008181 38.4330163,24.5749256 C37.9706636,24.7874161 37.4845626,25.0999022 37.2894179,25.6268153 C37.1694486,25.9504805 37.2010583,26.282948 37.2577264,26.6159438 C37.3256953,27.0155738 37.2479814,27.2275362 37.1972094,27.6307753 C36.330646,27.2064984 33.3277278,26.2638468 32.9498858,27.8079681 C32.8241023,28.3221177 33.1105546,28.9030777 33.3291199,29.3366851 C33.7124485,30.0972146 34.2150095,30.792342 34.7287894,31.4552526 C35.800488,32.8382015 37.0799425,34.031018 38.4565189,35.051131 C36.8436889,35.7640393 36.4226907,37.8668505 37.8190846,39.1196996 C38.4356368,39.6728439 39.2646126,39.7959898 40.042325,39.7606041 C40.3269758,39.7476645 40.7373282,39.6388665 40.9612982,39.6881601 C41.0818408,39.7146554 41.2108999,39.8162354 41.3778743,39.8275905 C42.4754504,39.9023231 43.714451,39.6393947 44.787378,39.39724 C46.6991896,38.9657452 48.5091295,38.0651691 49.987168,36.6935753 C50.3663202,36.3417424 50.6795507,36.1391987 51.1898912,36.1443921 C51.6370943,36.1488813 52.0758626,36.2707949 52.5226563,36.282062 C53.704825,36.3120783 54.7707095,35.737456 55.8684493,35.3549907 C55.9356812,36.8294848 56.3579896,38.4534441 56.9646332,39.7799694 C57.4593326,40.8616993 58.4923791,41.0189106 59.5074916,41.1138008 C62.7536241,41.4174844 66.0112212,41.0785911 69.2614482,41.0830803 C66.11514,41.7901791 62.8639303,42.0816273 59.7455467,42.9137205 C58.3359686,43.2897601 59.412335,44.2343482 60.0150478,44.8891606 C61.0074767,45.9674576 61.7453904,47.3034896 62.2572049,48.7109972 C63.7963336,46.7161918 66.5168121,45.4018138 68.9270081,46.0146386 C71.5900815,46.691633 73.4652881,50.2723712 71.7623788,52.8466403 C70.7737169,54.3410278 68.988344,54.9179387 67.5027716,55.5599876 C68.6616835,56.7579975 68.9419941,58.5273729 69.6395359,60.0177993 C69.9835571,60.7528018 70.4664644,61.5838387 71.235824,61.8399892 C71.5204747,61.9347913 71.8542597,61.9428896 72.078803,62.1736011 C72.3569844,62.4592398 72.4232337,62.7785917 72.7784739,63.0240913 C74.1959954,64.0039772 76.410228,63.9284524 77.6666712,62.6497242 C78.8028995,61.4932617 78.5072754,59.6632377 77.5583303,58.4907548 C79.0688793,57.8647263 81.8208855,57.0595686 81.2205476,54.7197081 C84.4937039,54.5036086 92.4408324,49.2254989 88.047744,45.3686286 C90.4586771,44.0138475 92.6736466,40.7029036 91.1250186,37.7842838 C89.9325317,35.5368488 87.159234,34.5322281 84.8838294,34.4130432" id="hair" fill="#191847" transform="translate(62.279412, 38.480769) scale(-1, 1) translate(-62.279412, -38.480769) "></path>
                    </g>
                    <g id="Bottom/Standing/Jogging" transform="translate(0.000000, 171.929577)">
                        <polygon id="Leg" fill="#BA8B72" points="115.7 0 181.832708 110.192907 231.413212 203.351721 242.092412 203.351721 159.019582 4.51531526e-13"></polygon>
                        <g id="Accessories/Shoe/Flat-Simple" transform="translate(222.500000, 176.518828)" fill="#191847">
                            <path d="M0,32.375 L0.878538102,18.375 C6.02225519,19.861997 12.4648679,19.2786636 20.2063763,16.625 C28.4734202,22.4131651 38.8659067,26.3780456 51.383836,28.5196414 L51.3838367,28.5196375 C52.4725899,28.7059038 53.2042,29.7395114 53.0179336,30.8282646 C53.0055725,30.9005172 52.9892485,30.9720355 52.9690355,31.0424959 L51.833748,35 L20.2063763,35 L1.7570762,35 L0,32.375 Z" id="Shoe"></path>
                        </g>
                        <path d="M217.64332,188.434194 L238.237971,182.224989 C229.214893,155.340893 218.15583,125.75593 205.060783,93.4701018 C191.965735,61.1842733 177.902141,30.0275727 162.87,2.84217094e-14 L104.703225,2.84217094e-14 C121.415733,37.9835007 139.133233,72.4963868 157.855724,103.538658 C176.578215,134.58093 196.507414,162.879442 217.64332,188.434194 Z" id="Pant" fill="#DB2721"></path>
                        <path d="M111.353799,2.84217094e-14 C105.112113,38.7225441 93.073611,88.1950766 91.937501,89.7218137 C91.1800944,90.7396384 63.9132597,99.8459673 10.1369971,117.040801 L12.4438333,126.426456 C76.5719003,117.204755 110.361923,110.050181 113.8139,104.962732 C118.991867,97.3315595 144.846152,37.0451257 154.86,2.84217094e-14 L111.353799,2.84217094e-14 Z" id="Leg" fill="#D4A181"></path>
                        <path d="M29.0402619,108.92762 L33.1035027,124.043896 C81.0675605,128.236601 110.456198,125.207108 121.269415,114.955418 C132.082633,104.703728 144.406509,66.3852551 158.241043,-1.13686838e-13 L102.77555,-1.13686838e-13 C94.0103145,54.3605913 89.1099774,82.6818857 88.0745387,84.9638832 C87.0391,87.2458806 67.3610078,95.2337928 29.0402619,108.92762 Z" id="Pant" fill="#FF4133"></path>
                        <g id="Accessories/Shoe/Flat-Simple" transform="translate(21.805000, 136.602510) rotate(80.000000) translate(-21.805000, -136.602510) translate(-5.340000, 118.861925)" fill="#191847">
                            <path d="M0,32.375 L0.878538102,18.375 C6.02225519,19.861997 12.4648679,19.2786636 20.2063763,16.625 C28.4734202,22.4131651 38.8659067,26.3780456 51.383836,28.5196414 L51.3838367,28.5196375 C52.4725899,28.7059038 53.2042,29.7395114 53.0179336,30.8282646 C53.0055725,30.9005172 52.9892485,30.9720355 52.9690355,31.0424959 L51.833748,35 L20.2063763,35 L1.7570762,35 L0,32.375 Z" id="Shoe"></path>
                        </g>
                    </g>
                    <g id="Body/Pointing-Forward" transform="translate(129.294852, 163.138234) rotate(-8.000000) translate(-129.294852, -163.138234) translate(15.374852, 80.173445)">
                        <path d="M141.287004,37.9050194 L172.200403,21.0294675 C177.341112,14.9449021 182.406142,10.2193845 187.395494,6.85291487 C188.920079,6.21851546 191.586193,5.83453162 189.09287,10.2454019 C186.599547,14.6562722 184.175973,19.4076116 185.446222,20.7665053 C186.716472,22.125399 189.883954,20.2270844 191.399342,22.4848978 C192.409602,23.9901068 186.99821,26.3679131 175.165167,29.6183169 L152.702815,50.1174792 L141.287004,37.9050194 Z M189.703125,52.1433871 L203.282059,44.708333 C205.187376,37.4821881 207.46495,33.8464702 210.114781,33.8011795 C212.150403,32.8571353 208.605382,41.9880443 212.464277,41.1962135 C216.323171,40.4043826 225.74163,33.4225365 227.364477,34.8401151 C229.765375,36.9373312 227.624587,43.3770001 225.10223,46.5803906 C220.387948,52.5675233 216.484725,54.614942 206.837305,57.2960492 C201.793135,58.6978704 196.339496,61.5077004 190.476387,65.7255391 L189.703125,52.1433871 Z" id="Skin" fill="#BA8B72"></path>
                        <path d="M127.230937,30.8366913 C137.943326,32.4179339 152.561129,32.4253508 169.302774,25.2081223 L173.174912,39.4376588 C161.034308,48.1576292 144.924596,54.3505065 132.077124,51.9453884 C121.952609,50.0500227 118.696981,36.9661925 127.230937,30.8366913 Z" id="Sleeve" fill="#191847" transform="translate(147.754124, 38.838038) rotate(-9.000000) translate(-147.754124, -38.838038) "></path>
                        <path d="M140.811613,55.7131812 C152.306723,58.5705743 171.583311,55.2009183 198.641378,45.6042132 C205.352897,59.4435515 208.455464,69.3099384 207.949079,75.2033737 C184.737244,87.288525 164.842697,92.6766765 148.452249,93.0323766 C148.973115,102.725922 147.789349,111.949554 143.812721,120.377489 C135.63745,137.703893 87.7666921,121.657711 71.6710764,124.815991 C61.5915286,92.1888725 81.0806393,78.9293432 81.0963205,58.0526108 C81.1134931,35.1903641 99.5312715,-1.42108547e-13 102.241079,-1.42108547e-13 L126.953027,8.62748707e-14 C128.31653,17.4601989 135.179419,36.702851 140.811613,55.7131812 Z" id="Clothes" fill="#2F3676"></path>
                    </g>
                </g>
                <g id="Humaaan">
                    <g id="Head/Front/Airy" transform="translate(146.854992, 53.957671) rotate(7.000000) translate(-146.854992, -53.957671) translate(86.334992, 7.816826)">
                        <g id="Head" stroke-width="1" transform="translate(48.044118, 27.423077)" fill="#D4A181">
                            <path d="M7.35099367,30.5104968 C3.25130946,25.7258325 0.476557427,19.8621605 0.940220121,13.2917477 C2.27616145,-5.63944128 28.780678,-1.47482091 33.9363552,8.08001758 C39.0920324,17.6348561 38.4794039,41.8714963 31.8161505,43.5792125 C29.1588542,44.2602473 23.4980231,42.5919847 17.7366177,39.1391938 L21.3529412,64.5769231 L0,64.5769231 L7.35099367,30.5104968 Z"></path>
                        </g>
                        <path d="M69.8098379,24.4908041 C66.9955821,24.0319373 59.4180741,23.7164537 58.0206463,23.7166573 C57.127624,23.7166573 56.1598598,23.9195119 55.6309488,23.104224 C55.1978136,22.4365963 55.3564869,21.3074541 55.2272202,20.5326964 C55.0771238,19.6326821 54.8639257,18.744277 54.6482771,17.8581122 C54.0346178,15.3364836 53.106675,12.9374639 51.8082904,10.6850859 C49.3720324,6.45935696 45.8030062,3.14932479 41.2972562,1.22322498 C36.3216127,-0.903489023 30.6912631,-1.39046213 25.3392555,-0.95909072 C19.6119049,-0.497576266 14.4273517,1.38229064 9.01979822,3.15136149 C3.86669382,4.83713162 -1.53064902,5.50068594 -6.92023178,4.67745495 C-12.3504529,3.84811389 -16.4534953,0.921794531 -21.033783,-1.85564263 C-25.7227118,-4.69906861 -31.0812543,-6.55877227 -36.624405,-6.13127057 C-41.7987475,-5.7320789 -46.5677278,-3.60780893 -50.8463932,-0.770085683 C-54.8495756,1.88494627 -58.1527168,5.07929433 -60.0175875,9.5750887 C-62.0237736,14.4112143 -62.0219356,19.7196489 -58.7228787,23.9936475 C-53.9410331,30.1888578 -45.0637009,31.7909199 -37.6781428,31.6316506 C-33.4062164,31.5397958 -29.2106655,30.764427 -25.1774638,29.3540177 C-19.7987043,27.4729288 -15.150618,24.2846908 -10.1186118,21.697888 C-7.75709561,20.4840195 -5.31614067,19.4870586 -2.75755919,18.768921 C-0.274740642,18.0717612 2.17070698,17.7520006 4.41868087,19.2432666 C6.79673828,20.8208884 8.92769827,22.3706075 11.6482205,23.3581995 C14.2580593,24.3056687 17.0224873,24.835616 19.803048,24.8142308 C25.213052,24.7726823 30.5460679,23.0966882 35.8004618,21.9740635 C40.0852536,21.058774 44.6698297,20.1465396 49.0381445,21.0263906 C50.8609475,21.3936062 53.5234733,22.1516631 54.1818552,24.035196 C43.1010674,26.031969 38.7490998,39.6574399 41.8729421,49.659839 C43.5589226,55.058499 53.6935825,61.3694755 57.6340716,58.5313184 C60.1304848,56.7332642 58.6149054,54.3727447 57.6340716,52.8144715 C55.7557228,49.8303101 55.1130653,45.9970517 58.5887662,43.919422 C61.5868135,42.1275402 64.7390537,46.3827839 64.7986838,46.3780995 C65.6226822,46.3135364 72.7427446,42.3098673 77.648338,36.4674987 C82.4877242,36.7527311 83.2219291,33.5800217 82.0663784,30.9853417 C80.9108278,28.3906617 73.6982528,25.1252337 69.8098379,24.4908041 Z" id="hair" fill="#191847"></path>
                    </g>
                    <g id="Bottom/Standing/Sprint" transform="translate(0.000000, 172.929577)">
                        <path d="M184.42016,-8.71184178 C167.458963,5.12357511 174.110571,126.67213 172.979408,128.200516 C172.476669,128.879799 145.571865,134.624332 92.2649963,145.434116 L94.5814345,154.844481 C156.952036,151.843263 189.951414,148.027919 193.579568,143.398449 C198.774045,136.770374 205.14875,99.6662017 212.703681,32.0859309 L184.42016,-8.71184178 Z" id="Leg" fill="#BA8B72" transform="translate(152.484339, 73.066320) rotate(-55.000000) translate(-152.484339, -73.066320) "></path>
                        <path d="M101.27509,135.544338 L105.353016,150.700956 C151.857533,156.119072 182.499016,149.551171 193.271883,139.293401 C200.453794,132.454888 206.845223,95.4516105 212.446169,28.2835689 L182.190306,-14.9262819 C141.811419,15.5445162 166.065537,115.538883 165.036009,117.824385 C164.00648,120.109886 139.488459,121.879835 101.27509,135.544338 Z" id="Pant" fill="#2F3676" transform="translate(156.860630, 68.860375) rotate(-55.000000) translate(-156.860630, -68.860375) "></path>
                        <g id="Accessories/Shoe/Flat-Sneaker" transform="translate(198.811684, 166.122066) rotate(20.000000) translate(-198.811684, -166.122066) translate(171.666684, 148.381480)" fill="#E4E4E4">
                            <path d="M2.28004921,22.4680239 C1.35018034,24.9605595 0.885245902,26.8353722 0.885245902,28.092462 C0.885245902,29.6703374 1.15118635,31.9728501 1.68306723,35 C3.53494727,35 20.178105,35 51.6125403,35 C52.9100303,30.7601938 52.1610439,28.4712589 49.3655809,28.1331953 C46.5701179,27.7951316 44.2478793,27.4898872 42.3988652,27.217462 L19.2938401,17.0363435 C18.7884459,16.8136439 18.1982092,17.0428133 17.9755097,17.5482075 C17.9728332,17.5542814 17.9702173,17.5603818 17.9676624,17.5665078 L16.5215329,21.0338582 C13.9336653,22.2273206 11.8307543,22.8240519 10.2127997,22.8240519 C8.93655596,22.8240519 7.18822216,22.3294296 4.96779829,21.3401852 L4.96778998,21.3402038 C3.95883528,20.8906937 2.77651599,21.3442132 2.32700593,22.3531679 C2.31016951,22.3909584 2.29450973,22.4292621 2.28004921,22.4680239 Z" id="shoe"></path>
                        </g>
                        <polygon id="Leg" fill="#BA8B72" points="115.7 0 69.6460935 110.192907 24.3822715 203.351721 35.0614721 203.351721 151.899582 0"></polygon>
                        <g id="Accessories/Shoe/Flat-Sneaker" transform="translate(21.360000, 176.518828)" fill="#E4E4E4">
                            <path d="M2.28004921,22.4680239 C1.35018034,24.9605595 0.885245902,26.8353722 0.885245902,28.092462 C0.885245902,29.6703374 1.15118635,31.9728501 1.68306723,35 C3.53494727,35 20.178105,35 51.6125403,35 C52.9100303,30.7601938 52.1610439,28.4712589 49.3655809,28.1331953 C46.5701179,27.7951316 44.2478793,27.4898872 42.3988652,27.217462 L19.2938401,17.0363435 C18.7884459,16.8136439 18.1982092,17.0428133 17.9755097,17.5482075 C17.9728332,17.5542814 17.9702173,17.5603818 17.9676624,17.5665078 L16.5215329,21.0338582 C13.9336653,22.2273206 11.8307543,22.8240519 10.2127997,22.8240519 C8.93655596,22.8240519 7.18822216,22.3294296 4.96779829,21.3401852 L4.96778998,21.3402038 C3.95883528,20.8906937 2.77651599,21.3442132 2.32700593,22.3531679 C2.31016951,22.3909584 2.29450973,22.4292621 2.28004921,22.4680239 Z" id="shoe"></path>
                        </g>
                        <path d="M28.4698084,183.999048 L52.1991105,188.434194 C70.5465402,161.550098 147.331283,51.3162756 155.75,2.84217094e-14 L102.923225,2.84217094e-14 C74.8088437,37.0964714 45.9586982,156.670237 28.4698084,183.999048 Z" id="Pant" fill="#5C63AB"></path>
                    </g>
                    <g id="Body/Jacket-2" transform="translate(133.500000, 162.725352) rotate(7.000000) translate(-133.500000, -162.725352) translate(19.580000, 79.760563)">
                        <path d="M176.34375,68.9007302 L208.615161,54.7748282 C214.26836,49.1599875 219.727329,44.8924489 224.992069,41.9722124 C226.566326,41.4726671 229.255871,41.3217486 226.386337,45.4992404 C223.516803,49.6767321 220.68698,54.1994564 221.83357,55.6635251 C222.980161,57.1275938 226.301583,55.5116606 227.613776,57.8925235 C228.488571,59.4797654 222.889849,61.3784383 210.81761,63.5885421 L186.648228,82.0584043 L176.34375,68.9007302 Z M45.8745644,72.7914439 L64.125,76.4006963 C45.7710734,110.493025 35.9281922,128.56198 34.5963565,130.607559 C31.5997262,135.210113 34.395643,143.645249 35.4284429,148.08725 C28.9492352,149.590518 31.5044357,139.870539 23.3051235,141.899982 C15.8211716,143.752364 9.47568283,148.506235 2.4972042,142.094881 C1.63924126,141.306643 1.01117182,138.842833 3.93640209,137.579157 C11.2242175,134.430879 21.9913509,128.535791 23.7372425,126.24708 C26.1180776,123.126014 33.4971849,105.307469 45.8745644,72.7914439 Z" id="Skin" fill="#D4A181"></path>
                        <path d="M109.809339,8.78101794 L117.366627,6.79820252 C135.490586,21.4928929 145.705761,59.7122982 157.291581,63.8759427 C168.245505,67.8125 182.75978,61.8059366 199.945837,53.906539 L206.437578,65.5305802 C191.838585,84.3231103 158.782177,102.012881 144.128761,94.8471575 C120.700995,83.3906547 111.374864,35.9663931 109.809339,8.78101794 Z" id="Coat-Back" fill="#69A1AC" transform="translate(158.123459, 51.637224) rotate(5.000000) translate(-158.123459, -51.637224) "></path>
                        <path d="M80.15625,101.197861 C111.035783,101.197861 133.750119,101.197861 148.299261,101.197861 C151.413049,101.197861 150.826315,96.7164265 150.376198,94.4550701 C145.181305,68.3562845 124.902412,40.2230565 124.902412,3.07209214 L105.246759,0 C88.98901,26.0614734 83.3667984,58.148424 80.15625,101.197861 Z" id="Shirt" fill="#DDE3E9"></path>
                        <path d="M73.359672,74.7738297 C59.4682613,99.7489847 47.7917788,117.729901 38.3302246,128.716578 L24.046875,125.92815 C33.2475591,69.0548213 59.8915125,27.0787712 103.978735,2.27181937e-14 L104.203125,1.4989538e-14 L111.761323,0 C129.406853,59.9525846 134.271413,99.8991087 126.355004,119.839572 L65.015625,119.839572 C65.9860751,105.248838 69.0977123,89.8186045 73.3596734,74.7738267 Z" id="Coat-Front" fill="#89C5CC"></path>
                    </g>
                </g>
            </g>
        </g>
        <circle id="Oval" fill="#C5CFD6" cx="421" cy="77" r="50"></circle>
        <path d="M419.300778,126.971669 C392.473252,126.075779 371,104.045563 371,77 C371,49.496754 393.206171,27.1800372 420.66728,27.0010838 C405.107784,38.3692081 395,56.7542043 395,77.5 C395,97.6320519 404.518573,115.540922 419.300778,126.971669 Z" id="Combined-Shape" fill="#AFB9C5"></path>
    </g>
</svg>