<?xml version="1.0" encoding="UTF-8"?>
<svg width="960px" height="480px" viewBox="0 0 960 480" version="1.1" xmlns="http://www.w3.org/2000/svg" xmlns:xlink="http://www.w3.org/1999/xlink">
    <!-- Generator: Sketch 52.5 (67469) - http://www.bohemiancoding.com/sketch -->
    <title>image2</title>
    <desc>Created with Sketch.</desc>
    <g id="image2" stroke="none" stroke-width="1" fill="none" fill-rule="evenodd">
        <g id="Background-Shape-2" transform="translate(480.000000, 395.500000) scale(-1, 1) translate(-480.000000, -395.500000) translate(149.000000, 332.000000)" fill="#111111" opacity="0.04">
            <path d="M661.71121,79.3220178 C671.360993,114.775587 437.337348,137.900737 235.907772,121.762252 C34.4781963,105.623768 -57.9281424,42.6011652 38.190693,9.02024514 C134.309528,-24.5606749 652.061428,43.8684486 661.71121,79.3220178 Z" id="Background-Shape"></path>
        </g>
        <g id="Group-2" transform="translate(213.000000, 19.000000)">
            <g id="Group" transform="translate(0.000000, 56.825771)">
                <g id="Head/Front/Short-2" transform="translate(66.551184, 0.000000)">
                    <g id="Head" stroke-width="1" transform="translate(48.352294, 28.086747)" fill="#D4A181">
                        <path d="M7.39814615,31.2488859 C3.27216478,26.3484273 0.479614274,20.3428477 0.946251103,13.6134233 C2.29076174,-5.77592226 28.9652898,-1.51051328 34.1540378,8.27556332 C39.3427857,18.0616399 38.7262276,42.8848348 32.0202332,44.6338796 C29.3458918,45.3313963 23.6487497,43.6227598 17.8503881,40.0864074 L21.4899083,66.139759 L0,66.139759 L7.39814615,31.2488859 Z"></path>
                    </g>
                    <path d="M54.0991771,63.7003073 C51.4019821,51.5586229 43.7181137,43.2820434 44.8916247,37.8552297 C45.6739654,34.2373539 47.7591378,31.987524 51.147142,31.1057399 C52.8993857,23.9330803 58.5507312,20.8822686 68.1011783,21.9533048 C82.4268491,23.5598591 91.1704411,29.5796561 87.3945159,42.8258363 C83.9235526,42.8258363 79.7333582,41.5556891 73.9391901,43.7318604 C72.100724,44.4223508 70.7857991,46.5636221 69.9944155,50.1556742 L67.3760539,50.1556742 C64.8348236,45.8928904 62.3291543,44.3264336 59.8590459,45.456304 C57.3889375,46.5861744 56.8274417,49.3306341 58.1745585,53.689683 L56.8847506,63.7003073 L54.0991771,63.7003073 Z" id="Hair" fill="#191847"></path>
                </g>
                <g id="Bottom/Sitting/Sweat-Pants" transform="translate(0.000000, 169.144625)">
                    <g id="Objects/Seat/Ball" transform="translate(9.000000, 37.821990)" fill="#C5CFD6">
                        <ellipse id="Ballsy-Ball" cx="104.275269" cy="52.9454545" rx="69.2172043" ry="66.5212121"></ellipse>
                    </g>
                    <path d="M244.358328,146.479026 C232.826822,120.941706 224.487352,98.7048395 221.13992,86.9726163 C215.408304,66.8842017 211.048035,49.2075699 209.945995,42.6062701 C207.318037,26.8646239 230.161747,25.9479564 233.181206,33.7712803 C237.751277,45.6121916 245.729586,84.5164851 255.316133,143.279972 L244.358328,146.479026 Z M110.599512,66.3357546 C121.179656,62.1512786 158.23076,49.0559131 176.100507,45.3514738 C181.235556,44.2869665 186.212595,43.2979192 190.891886,42.4040953 C204.800392,39.7473346 212.006304,64.8533909 198.610715,66.7824271 C165.250406,71.5864895 117.956535,76.5474648 113.909213,77.1041997 C108.236718,77.8844875 103.950221,68.9655673 110.599512,66.3357546 Z" id="Skin" fill="#D4A181"></path>
                    <path d="M199.428409,35.4952685 L142.2,6.34573505 L142.2,0 L149.005967,0 C204.371888,14.1163571 232.663829,23.1629695 233.88179,27.139837 C233.894893,27.1826234 233.906908,27.2254659 233.917833,27.2683645 C233.945696,27.304957 233.973087,27.3417706 234,27.3788054 C244.972355,42.4777195 251.543655,116.191822 253.700474,121.711285 L232.674957,124.849826 C224.632139,95.0082031 198.9,74.2194415 199.583539,38.4784807 C199.398968,37.4300597 199.352332,36.4358107 199.428409,35.4952685 Z" id="Leg-Back" fill="#2F3676"></path>
                    <path d="M146.954857,52.8071304 C141.71859,51.7583341 136.896551,50.8222996 132.770434,50.0981601 C106.118361,45.4206823 98.3463893,31.1457333 102.941594,3.80477616e-14 L152.047586,-4.97379915e-14 C160.069134,2.30562675 201.756633,19.7978643 223.38596,29.1016229 C237.701357,35.259327 233.188678,57.4574377 225.081861,63.2342979 C225.037839,63.588697 224.891943,63.8294302 224.632139,63.9371728 C181.02318,82.0220747 146.524492,72.5329728 135,75.5648837 L129.669408,58.7397258 L146.954857,52.8071304 Z" id="Leg-Front" fill="#5C63AB"></path>
                    <g id="Accessories/Shoe/Flat-Sneaker" transform="translate(129.563365, 84.047503) rotate(64.000000) translate(-129.563365, -84.047503) translate(102.113365, 66.037032)" fill="#E4E4E4">
                        <path d="M2.48177486,22.657196 C1.42589774,25.4477565 0.897959184,27.5270591 0.897959184,28.8951037 C0.897959184,30.5180613 1.16771888,32.8863601 1.70723827,36 C3.5857137,36 20.4678888,36 52.3537635,36 C53.6698872,31.6390565 52.9101443,29.2847235 50.0745348,28.9370008 C47.2389253,28.5892782 44.8833364,28.2753125 43.007768,27.9951037 L19.3766585,17.4362945 C18.9732673,17.2560519 18.5001387,17.4369497 18.3198962,17.8403409 C18.3166339,17.8476421 18.3134813,17.8549918 18.3104393,17.8623876 L16.7588036,21.6348255 C14.1337709,22.8623869 12.0006593,23.4761676 10.3594688,23.4761676 C8.99199813,23.4761676 7.09020806,22.9085034 4.65409855,21.7731749 L4.6540947,21.7731832 C3.85315372,21.3999114 2.90126615,21.7466057 2.52799431,22.5475467 C2.51123357,22.5835107 2.49581643,22.6200858 2.48177486,22.657196 Z" id="shoe"></path>
                    </g>
                    <g id="Accessories/Shoe/Flat-Sneaker" transform="translate(236.700000, 118.869110)" fill="#E4E4E4">
                        <path d="M2.48177486,22.657196 C1.42589774,25.4477565 0.897959184,27.5270591 0.897959184,28.8951037 C0.897959184,30.5180613 1.16771888,32.8863601 1.70723827,36 C3.5857137,36 20.4678888,36 52.3537635,36 C53.6698872,31.6390565 52.9101443,29.2847235 50.0745348,28.9370008 C47.2389253,28.5892782 44.8833364,28.2753125 43.007768,27.9951037 L19.3766585,17.4362945 C18.9732673,17.2560519 18.5001387,17.4369497 18.3198962,17.8403409 C18.3166339,17.8476421 18.3134813,17.8549918 18.3104393,17.8623876 L16.7588036,21.6348255 C14.1337709,22.8623869 12.0006593,23.4761676 10.3594688,23.4761676 C8.99199813,23.4761676 7.09020806,22.9085034 4.65409855,21.7731749 L4.6540947,21.7731832 C3.85315372,21.3999114 2.90126615,21.7466057 2.52799431,22.5475467 C2.51123357,22.5835107 2.49581643,22.6200858 2.48177486,22.657196 Z" id="shoe"></path>
                    </g>
                </g>
                <g id="Body/Hoodie" transform="translate(17.986807, 73.775847)">
                    <path d="M171.237764,82.6214909 L199.868407,103.609035 C207.633627,105.700728 214.121218,108.303147 219.331178,111.416291 C220.561861,112.535758 222.049258,114.802865 216.945317,114.411052 C211.841376,114.019239 206.455144,113.836255 205.7509,115.574103 C205.046655,117.31195 208.135284,119.390226 206.711698,121.735037 C205.762642,123.298245 201.278916,119.378559 193.260522,109.975981 L164.908675,98.2396326 L171.237764,82.6214909 Z M61.3105305,83.3458227 L80.0672139,83.4194557 C68.4858274,120.741142 62.2335996,140.543795 61.3105305,142.827415 C59.2336252,147.965559 63.6286362,155.790864 65.5081174,159.996124 C59.3867098,162.730508 60.0389524,152.603968 52.3169614,156.190265 C45.2686861,159.46367 39.9070806,165.394862 31.763817,160.378957 C30.7626506,159.762281 29.6655353,157.440384 32.3163045,155.625945 C38.9203373,151.105514 48.4371487,143.193947 49.7230198,140.589793 C51.4765348,137.038564 55.3390383,117.957241 61.3105305,83.3458227 Z" id="Skin" fill="#B28B67"></path>
                    <path d="M110.167234,8.59030042 L117.783198,6.58999507 C148.634714,28.8187019 164.575522,75.3134892 201.941558,97.4133721 L194.394263,108.626469 C132.732532,106.423618 112.540928,49.7765517 110.167234,8.59030042 Z" id="Coat-Back" fill="#E87613" transform="translate(156.054396, 57.608232) rotate(5.000000) translate(-156.054396, -57.608232) "></path>
                    <path d="M80.7804878,102.144 C111.900503,102.144 134.791734,102.144 149.45418,102.144 C152.592218,102.144 152.000914,97.6206668 151.547292,95.3381681 C146.311942,68.9953746 125.875122,40.5991179 125.875122,3.10081435 L106.066396,0 C89.6820353,26.3051325 84.0160392,58.6920767 80.7804878,102.144 Z" id="Shirt" fill="#DDE3E9"></path>
                    <path d="M81.3323454,25.8567308 C78.4553765,25.0311832 76.1771151,23.1057484 74.497561,20.0804264 C67.2574365,7.0390439 69.8721843,-0.141203136 77.6095812,-2.50139088 C85.3469781,-4.86157863 92.2471158,-1.86517468e-14 104.574857,-6.21724894e-15 C105.245384,-5.32907052e-15 105.859511,0.0419619507 106.417238,0.125885852 L112.6184,0.47912699 C130.410212,60.6728142 135.317087,100.833105 127.339027,120.96 L73.2874819,120.96 C70.0849853,128.414604 67.0204664,134.686604 64.0939251,139.776 L49.3658537,139.776 C47.9797352,95.0361134 58.6352324,57.0630237 81.3323454,25.8567308 Z" id="Coat-Front" fill="#FF9B21"></path>
                    <path d="M85.057571,90.045879 C86.7574815,104.244245 89.520405,114.548952 93.3463415,120.96 L73.2874819,120.96 C77.0231047,112.264412 80.9464677,101.959705 85.057571,90.045879 Z" id="Shade" fill-opacity="0.1" fill="#000000"></path>
                </g>
            </g>
            <g id="Head/Front/Long" transform="translate(391.893553, 46.821234) scale(-1, 1) translate(-391.893553, -46.821234) translate(330.647676, 0.000000)">
                <path d="M85.959633,41.8455679 C89.0127477,53.7140935 92.7614553,78.5035395 88.7508755,82.4685474 L62.783903,82.4685474 C62.7835132,82.4616941 62.7831245,82.4548434 62.7827369,82.4479952 C53.3217697,82.4031239 45.666055,74.7197023 45.666055,65.2481928 L45.666055,41.6626506 C45.666055,32.1633529 53.3667573,24.4626506 62.866055,24.4626506 L68.759633,24.4626506 C78.2589307,24.4626506 85.959633,32.1633529 85.959633,41.6626506 L85.959633,41.8455679 Z" id="Hair-Back" fill="#191847"></path>
                <g id="Head" stroke-width="1" transform="translate(48.352294, 28.086747)" fill="#D4A181">
                    <path d="M7.39814615,31.2488859 C3.27216478,26.3484273 0.479614274,20.3428477 0.946251103,13.6134233 C2.29076174,-5.77592226 28.9652898,-1.51051328 34.1540378,8.27556332 C39.3427857,18.0616399 38.7262276,42.8848348 32.0202332,44.6338796 C29.3458918,45.3313963 23.6487497,43.6227598 17.8503881,40.0864074 L21.4899083,66.139759 L0,66.139759 L7.39814615,31.2488859 Z"></path>
                </g>
                <path d="M61.5596013,56.0600905 C62.5497287,66.8218503 62.153054,79.111546 59.2022516,82.0288186 L33.2352792,82.0288186 C31.7884766,56.5934223 45.771059,66.4431464 45.771059,42.4950603 C46.6428187,41.6332063 47.4665612,40.7801677 48.2816615,40.0445067 L48.2527926,39.3402009 C52.7492638,30.0258501 58.4538022,25.3686747 65.3664076,25.3686747 C75.7353158,25.3686747 79.0081718,30.2506245 81.7947822,34.3954704 C79.7110147,41.6301541 71.6244587,42.7028969 64.4390485,47.2124733 C63.5920894,46.516187 62.5120975,46.0988803 61.3357798,46.0988803 C58.6159041,46.0988803 56.4110092,48.3299047 56.4110092,51.0820128 C56.4110092,53.8341209 58.6159041,56.0651453 61.3357798,56.0651453 C61.4107905,56.0651453 61.4854095,56.0634484 61.5596013,56.0600905 Z" id="Hair-Front" fill="#191847"></path>
            </g>
            <g id="Bottom/Standing/Shorts" transform="translate(399.098951, 277.325771) scale(-1, 1) translate(-399.098951, -277.325771) translate(264.197901, 169.676951)">
                <polygon id="Leg" fill="#BA8B72" points="115.2 9.9475983e-14 149.067754 110.786164 165.474139 205.002661 178.337877 205.002661 161.001877 9.9475983e-14"></polygon>
                <path d="M103.083955,0 C105.384334,60.8275588 102.677098,92.2035151 102.162246,97.7299633 C101.647393,103.256411 94.5973766,139.090197 77.9073186,206.857889 L91.6145931,202.147457 C117.991674,139.994455 126.980042,107.692442 130.005294,99.5310104 C133.030545,91.3695787 141.065463,58.1925753 154.110047,0 L103.083955,0 Z" id="Leg" fill="#D4A181"></path>
                <g id="Accessories/Shoe/Flat-Simple" transform="translate(75.600000, 179.204188)" fill="#191847">
                    <path d="M0,33.3 L0.891155051,18.9 C6.10874261,20.4294826 12.6438796,19.8294826 20.4965662,17.1 C28.9870358,23.1278741 39.687645,27.2332473 52.5983936,29.4161197 L52.5983931,29.4161231 C53.4696812,29.5634353 54.0565797,30.389174 53.9092675,31.2604621 C53.8996439,31.3173812 53.8869471,31.3737377 53.8712325,31.4292845 L52.578148,36 L20.4965662,36 L1.7823101,36 L0,33.3 Z" id="Shoe"></path>
                </g>
                <g id="Accessories/Shoe/Flat-Simple" transform="translate(160.200000, 179.204188)" fill="#191847">
                    <path d="M0,33.3 L0.891155051,18.9 C6.10874261,20.4294826 12.6438796,19.8294826 20.4965662,17.1 C28.9870358,23.1278741 39.687645,27.2332473 52.5983936,29.4161197 L52.5983931,29.4161231 C53.4696812,29.5634353 54.0565797,30.389174 53.9092675,31.2604621 C53.8996439,31.3173812 53.8869471,31.3737377 53.8712325,31.4292845 L52.578148,36 L20.4965662,36 L1.7823101,36 L0,33.3 Z" id="Shoe"></path>
                </g>
                <polygon id="Bottom" fill="#69A1AC" points="110.7 0 125.1 56.4443846 169.083286 56.4443846 162.525199 0"></polygon>
                <path d="M102.6,-3.55271368e-15 C97.8618952,14.2107535 96.9618952,33.0255484 99.9,56.4443846 L144.783286,56.4443846 L157.125199,-3.55271368e-15 L102.6,-3.55271368e-15 Z" id="Bottom" fill="#89C5CC"></path>
            </g>
            <g id="Body/Hoodie" transform="translate(397.898051, 158.471869) scale(-1, 1) rotate(8.000000) translate(-397.898051, -158.471869) translate(282.611694, 74.433757)">
                <path d="M171.982276,82.6214909 L200.737401,103.609035 C208.536382,105.700728 215.05218,108.303147 220.284792,111.416291 C221.520826,112.535758 223.014689,114.802865 217.888557,114.411052 C212.762426,114.019239 207.352775,113.836255 206.645469,115.574103 C205.938162,117.31195 209.04022,119.390226 207.610445,121.735037 C206.657262,123.298245 202.154042,119.378559 194.100786,109.975981 L165.625669,98.2396326 L171.982276,82.6214909 Z M61.5770981,83.3458227 L80.4153322,83.4194557 C68.7835919,120.741142 62.5041805,140.543795 61.5770981,142.827415 C59.4911627,147.965559 63.9052825,155.790864 65.7929353,159.996124 C59.6449129,162.730508 60.2999913,152.603968 52.5444264,156.190265 C45.4655065,159.46367 40.0805897,165.394862 31.9019205,160.378957 C30.8964012,159.762281 29.7945159,157.440384 32.4568102,155.625945 C39.0895562,151.105514 48.647745,143.193947 49.9392068,140.589793 C51.7003458,137.038564 55.5796429,117.957241 61.5770981,83.3458227 Z" id="Skin" fill="#D4A181"></path>
                <path d="M110.666236,8.60615535 L118.315816,6.60290894 C149.29206,28.8207036 165.284097,75.3110088 202.803017,97.3975161 L195.218924,108.613832 C133.291967,106.434185 113.034624,49.7928708 110.666236,8.60615535 Z" id="Coat-Back" fill="#DB2721" transform="translate(156.734627, 57.608371) rotate(5.000000) translate(-156.734627, -57.608371) "></path>
                <path d="M81.1317073,102.144 C112.387027,102.144 135.377785,102.144 150.103981,102.144 C153.255662,102.144 152.661788,97.6206668 152.206193,95.3381681 C146.948081,68.9953746 126.422405,40.5991179 126.422405,3.10081435 L106.527554,0 C90.0719572,26.3051325 84.3813263,58.6920767 81.1317073,102.144 Z" id="Shirt" fill="#DDE3E9"></path>
                <path d="M81.6859643,25.8567308 C78.7964869,25.0311832 76.5083199,23.1057484 74.8214634,20.0804264 C67.5498602,7.0390439 70.1759764,-0.141203136 77.9470142,-2.50139088 C85.7180519,-4.86157863 92.6481902,-1.86517468e-14 105.029531,-6.21724894e-15 C105.702972,-5.32907052e-15 106.319769,0.0419619507 106.879921,0.125885852 L113.108045,0.47912699 C130.977213,60.6728142 135.905422,100.833105 127.892675,120.96 L73.6061231,120.96 C70.3897026,128.414604 67.3118597,134.686604 64.3725943,139.776 L49.5804878,139.776 C48.1883427,95.0361134 58.8901682,57.0630237 81.6859643,25.8567308 Z" id="Coat-Front" fill="#FF4133"></path>
                <path d="M85.4273865,90.045879 C87.134688,104.244245 89.9096242,114.548952 93.7521951,120.96 L73.6061231,120.96 C77.3579877,112.264412 81.2984089,101.959705 85.4273865,90.045879 Z" id="Shade" fill-opacity="0.1" fill="#000000"></path>
            </g>
        </g>
        <g id="Background" opacity="0.100000001" transform="translate(480.000000, 206.500000) scale(-1, 1) rotate(90.000000) translate(-480.000000, -206.500000) translate(327.000000, -117.000000)">
            <ellipse id="Oval" fill="#2B44FF" cx="270.046997" cy="614.210136" rx="32.7571802" ry="32.789864"></ellipse>
            <polygon id="Polygon" fill="#2B44FF" points="127.832898 0 166.981723 39.1878863 127.832898 78.3757726 88.6840731 39.1878863"></polygon>
            <polygon id="Polygon" fill="#FF9B21" points="19.1749347 551.829419 38.3498695 571.023486 19.1749347 590.217553 0 571.023486"></polygon>
            <polygon id="Polygon" fill="#2026A2" points="296.412533 50.3844252 306 59.9814586 296.412533 69.578492 286.825065 59.9814586"></polygon>
        </g>
    </g>
</svg>