<?xml version="1.0" encoding="UTF-8"?>
<svg width="281px" height="45px" viewBox="0 0 281 45" version="1.1" xmlns="http://www.w3.org/2000/svg" xmlns:xlink="http://www.w3.org/1999/xlink">
    <!-- Generator: Sketch 52.5 (67469) - http://www.bohemiancoding.com/sketch -->
    <title>logo copy</title>
    <desc>Created with Sketch.</desc>
    <g id="logo-copy" stroke="none" stroke-width="1" fill="none" fill-rule="evenodd">
        <path d="M2,5.472 C2,4.57599552 2.6066606,3.77333688 3.82,3.064 C5.0333394,2.35466312 6.31199328,2 7.656,2 C9.22400784,2 10.1573318,2.54132792 10.456,3.624 L18.968,32.352 L23.392,13.424 C23.5413341,12.7146631 24.0266626,12.1546687 24.848,11.744 C25.6693374,11.3333313 26.583995,11.128 27.592,11.128 C28.600005,11.128 29.5146626,11.3333313 30.336,11.744 C31.1573374,12.1546687 31.6426659,12.7146631 31.792,13.424 L36.216,32.352 L44.728,3.624 C45.0266682,2.54132792 45.9599922,2 47.528,2 C48.8720067,2 50.1506606,2.35466312 51.364,3.064 C52.5773394,3.77333688 53.184,4.57599552 53.184,5.472 C53.184,5.73333464 53.146667,5.97599888 53.072,6.2 L41.928,40.36 C41.5919983,41.293338 40.8920053,42.0119975 39.828,42.516 C38.7639947,43.0200025 37.5413402,43.272 36.16,43.272 C34.7786598,43.272 33.5466721,43.0200025 32.464,42.516 C31.3813279,42.0119975 30.7280011,41.293338 30.504,40.36 L27.592,27.088 L24.68,40.36 C24.4559989,41.293338 23.8026721,42.0119975 22.72,42.516 C21.6373279,43.0200025 20.4053402,43.272 19.024,43.272 C17.6426598,43.272 16.4106721,43.0200025 15.328,42.516 C14.2453279,42.0119975 13.5546682,41.293338 13.256,40.36 L2.112,6.2 C2.03733296,5.97599888 2,5.73333464 2,5.472 Z M61.376,40.248 L61.376,4.688 C61.376,3.82932904 61.7493296,3.166669 62.496,2.7 C63.2426704,2.233331 64.1386614,2 65.184,2 L85.12,2 C85.978671,2 86.6319978,2.3733296 87.08,3.12 C87.5280022,3.8666704 87.752,4.74399496 87.752,5.752 C87.752,6.83467208 87.518669,7.7493296 87.052,8.496 C86.585331,9.2426704 85.9413374,9.616 85.12,9.616 L70.112,9.616 L70.112,19.08 L78.512,19.08 C79.3333374,19.08 79.977331,19.4159966 80.444,20.088 C80.910669,20.7600034 81.144,21.562662 81.144,22.496 C81.144,23.354671 80.9200022,24.1199966 80.472,24.792 C80.0239978,25.4640034 79.370671,25.8 78.512,25.8 L70.112,25.8 L70.112,35.32 L85.12,35.32 C85.9413374,35.32 86.585331,35.6933296 87.052,36.44 C87.518669,37.1866704 87.752,38.1013279 87.752,39.184 C87.752,40.192005 87.5280022,41.0693296 87.08,41.816 C86.6319978,42.5626704 85.978671,42.936 85.12,42.936 L65.184,42.936 C64.1386614,42.936 63.2426704,42.702669 62.496,42.236 C61.7493296,41.769331 61.376,41.106671 61.376,40.248 Z M96.56,40.248 L96.56,4.688 C96.56,3.82932904 96.9333296,3.166669 97.68,2.7 C98.4266704,2.233331 99.3226614,2 100.368,2 L120.304,2 C121.162671,2 121.815998,2.3733296 122.264,3.12 C122.712002,3.8666704 122.936,4.74399496 122.936,5.752 C122.936,6.83467208 122.702669,7.7493296 122.236,8.496 C121.769331,9.2426704 121.125337,9.616 120.304,9.616 L105.296,9.616 L105.296,19.08 L113.696,19.08 C114.517337,19.08 115.161331,19.4159966 115.628,20.088 C116.094669,20.7600034 116.328,21.562662 116.328,22.496 C116.328,23.354671 116.104002,24.1199966 115.656,24.792 C115.207998,25.4640034 114.554671,25.8 113.696,25.8 L105.296,25.8 L105.296,35.32 L120.304,35.32 C121.125337,35.32 121.769331,35.6933296 122.236,36.44 C122.702669,37.1866704 122.936,38.1013279 122.936,39.184 C122.936,40.192005 122.712002,41.0693296 122.264,41.816 C121.815998,42.5626704 121.162671,42.936 120.304,42.936 L100.368,42.936 C99.3226614,42.936 98.4266704,42.702669 97.68,42.236 C96.9333296,41.769331 96.56,41.106671 96.56,40.248 Z M131.744,40.248 L131.744,6.368 C131.744,4.8746592 132.163996,3.77333688 133.004,3.064 C133.844004,2.35466312 134.879994,2 136.112,2 C137.792008,2 139.070662,2.25199748 139.948,2.756 C140.825338,3.26000252 141.805328,4.46399048 142.888,6.368 L148.656,16.448 L154.424,6.368 C155.506672,4.46399048 156.486662,3.26000252 157.364,2.756 C158.241338,2.25199748 159.519992,2 161.2,2 C162.432006,2 163.467996,2.35466312 164.308,3.064 C165.148004,3.77333688 165.568,4.8746592 165.568,6.368 L165.568,40.248 C165.568,41.106671 165.138671,41.769331 164.28,42.236 C163.421329,42.702669 162.394673,42.936 161.2,42.936 C160.005327,42.936 158.978671,42.702669 158.12,42.236 C157.261329,41.769331 156.832,41.106671 156.832,40.248 L156.832,19.248 L151.456,28.432 C150.82133,29.5146721 149.850673,30.056 148.544,30.056 C147.27466,30.056 146.360003,29.5146721 145.8,28.432 L140.48,18.688 L140.48,40.248 C140.48,41.106671 140.050671,41.769331 139.192,42.236 C138.333329,42.702669 137.306673,42.936 136.112,42.936 C134.917327,42.936 133.890671,42.702669 133.032,42.236 C132.173329,41.769331 131.744,41.106671 131.744,40.248 Z M176.168,30.056 L176.168,15.216 C176.168,10.6613106 177.418654,7.32001064 179.92,5.192 C182.421346,3.06398936 185.743979,2 189.888,2 C194.069354,2 197.410654,3.06398936 199.912,5.192 C202.413346,7.32001064 203.664,10.6613106 203.664,15.216 L203.664,30.056 C203.664,34.6106894 202.413346,37.9519894 199.912,40.08 C197.410654,42.2080106 194.069354,43.272 189.888,43.272 C185.743979,43.272 182.421346,42.2080106 179.92,40.08 C177.418654,37.9519894 176.168,34.6106894 176.168,30.056 Z M184.904,30.056 C184.904,33.789352 186.565317,35.656 189.888,35.656 C193.248017,35.656 194.928,33.789352 194.928,30.056 L194.928,15.216 C194.928,11.482648 193.248017,9.616 189.888,9.616 C186.565317,9.616 184.904,11.482648 184.904,15.216 L184.904,30.056 Z M211.464,5.584 C211.464,4.61332848 212.070661,3.77333688 213.284,3.064 C214.497339,2.35466312 215.757327,2 217.064,2 C218.669341,2 219.621332,2.54132792 219.92,3.624 L227.76,32.352 L235.544,3.624 C235.842668,2.54132792 236.794659,2 238.4,2 C239.706673,2 240.966661,2.35466312 242.18,3.064 C243.393339,3.77333688 244,4.61332848 244,5.584 C244,5.69600056 243.962667,5.90133184 243.888,6.2 L233.472,40.36 C233.173332,41.293338 232.492005,42.0119975 231.428,42.516 C230.363995,43.0200025 229.14134,43.272 227.76,43.272 C226.37866,43.272 225.156005,43.0200025 224.092,42.516 C223.027995,42.0119975 222.346668,41.293338 222.048,40.36 L211.576,6.2 C211.501333,5.90133184 211.464,5.69600056 211.464,5.584 Z M252.248,40.248 L252.248,4.688 C252.248,3.82932904 252.62133,3.166669 253.368,2.7 C254.11467,2.233331 255.010661,2 256.056,2 L275.992,2 C276.850671,2 277.503998,2.3733296 277.952,3.12 C278.400002,3.8666704 278.624,4.74399496 278.624,5.752 C278.624,6.83467208 278.390669,7.7493296 277.924,8.496 C277.457331,9.2426704 276.813337,9.616 275.992,9.616 L260.984,9.616 L260.984,19.08 L269.384,19.08 C270.205337,19.08 270.849331,19.4159966 271.316,20.088 C271.782669,20.7600034 272.016,21.562662 272.016,22.496 C272.016,23.354671 271.792002,24.1199966 271.344,24.792 C270.895998,25.4640034 270.242671,25.8 269.384,25.8 L260.984,25.8 L260.984,35.32 L275.992,35.32 C276.813337,35.32 277.457331,35.6933296 277.924,36.44 C278.390669,37.1866704 278.624,38.1013279 278.624,39.184 C278.624,40.192005 278.400002,41.0693296 277.952,41.816 C277.503998,42.5626704 276.850671,42.936 275.992,42.936 L256.056,42.936 C255.010661,42.936 254.11467,42.702669 253.368,42.236 C252.62133,41.769331 252.248,41.106671 252.248,40.248 Z" id="WEEMOVE" stroke="#343A40" stroke-width="3" fill="#343A40"></path>
    </g>
</svg>