<svg id="Layer_1" data-name="Layer 1" xmlns="http://www.w3.org/2000/svg" viewBox="0 0 506 73"><defs><style>.cls-1{fill:#343a40;}</style></defs><title>weemove-logo-black</title><path class="cls-1" d="M67.28,72.91A12,12,0,0,1,60.68,71a9.2,9.2,0,0,1-4-5.56L49.09,38.06l-12,27.71a10.8,10.8,0,0,1-4.74,5.39,13.42,13.42,0,0,1-6.69,1.75,12,12,0,0,1-6.47-1.81,9.42,9.42,0,0,1-4.15-5.56L.81,14.72a13.55,13.55,0,0,1-.47-3.53A10.26,10.26,0,0,1,4,3.11,12,12,0,0,1,11.9.19,10.43,10.43,0,0,1,18,2.07,9.34,9.34,0,0,1,21.7,7.64L29,36.9,41.77,7.32a11.22,11.22,0,0,1,4.4-5.23A11.4,11.4,0,0,1,52.27.28a10.18,10.18,0,0,1,6,1.9A9.43,9.43,0,0,1,62,7.85l7.41,29.5,12.36-30A11.25,11.25,0,0,1,92.26.19a10.2,10.2,0,0,1,6.86,2.47,8.9,8.9,0,0,1,3,6.94,12.7,12.7,0,0,1-1.29,5.46L78.71,65.78a11.06,11.06,0,0,1-4.77,5.32A13.23,13.23,0,0,1,67.28,72.91Z"/><path class="cls-1" d="M113.47,72.07c-3.32,0-5.92-1-7.72-2.91s-2.57-4.64-2.25-8l3.91-49.83a11.52,11.52,0,0,1,3.48-7.66,11.16,11.16,0,0,1,7.8-2.76H151a11.09,11.09,0,0,1,7.39,2.28,8.22,8.22,0,0,1,2.86,6.49c0,8.92-7.95,9.88-11.37,9.88h-21l-.59,7.08H147a11.31,11.31,0,0,1,7.37,2.21,8.21,8.21,0,0,1,2.89,6.56c0,3.26-1,5.76-3.09,7.45s-4.59,2.34-8.2,2.34H126.86l-.67,8.2h20.65a10.94,10.94,0,0,1,7.43,2.35,8.51,8.51,0,0,1,2.83,6.6c0,8.75-8,9.7-11.38,9.7Z"/><path class="cls-1" d="M173,72.07c-3.32,0-5.91-1-7.71-2.91s-2.58-4.64-2.25-8L167,11.35a11.52,11.52,0,0,1,3.48-7.66A11.14,11.14,0,0,1,178.25.93h32.36A11.09,11.09,0,0,1,218,3.21a8.25,8.25,0,0,1,2.86,6.49c0,8.92-8,9.88-11.37,9.88h-21l-.58,7.08h18.7A11.26,11.26,0,0,1,214,28.87a8.21,8.21,0,0,1,2.89,6.56c0,3.26-1,5.76-3.08,7.45s-4.6,2.34-8.2,2.34H186.43l-.67,8.2h20.65a10.9,10.9,0,0,1,7.42,2.35,8.48,8.48,0,0,1,2.84,6.6c0,8.75-8,9.7-11.38,9.7Z"/><path class="cls-1" d="M283.69,72.63a9.58,9.58,0,0,1-7.22-2.94A9.24,9.24,0,0,1,274.1,62l1.26-16.09L269.22,56A17.18,17.18,0,0,1,264.73,61a10,10,0,0,1-5.84,1.8A9.12,9.12,0,0,1,253.13,61a13.94,13.94,0,0,1-3.87-5.27l-4.7-9.7L243.22,62.4a10.51,10.51,0,0,1-10.81,10.23,9.34,9.34,0,0,1-7.15-2.92,9.61,9.61,0,0,1-2.35-7.64l4-50.72a12.11,12.11,0,0,1,3.62-7.8A10.92,10.92,0,0,1,238.38.47c3.14,0,7.44,1.24,10.11,7.18l12.18,27,16.9-27.21a17,17,0,0,1,4.7-5.06,10.78,10.78,0,0,1,6.08-1.9A9.87,9.87,0,0,1,296,3.76,10.43,10.43,0,0,1,298.41,12l-4,50.39a11.76,11.76,0,0,1-3.25,7.34A10.18,10.18,0,0,1,283.69,72.63Z"/><path class="cls-1" d="M338.62,73a39.43,39.43,0,0,1-18.5-4.18,29.8,29.8,0,0,1-12.43-12.08,37.07,37.07,0,0,1-4.31-18.24,44.15,44.15,0,0,1,4.39-20A32.52,32.52,0,0,1,320.48,4.8,36.77,36.77,0,0,1,339.37,0a39.43,39.43,0,0,1,18.5,4.18,29.76,29.76,0,0,1,12.44,12.13,37.17,37.17,0,0,1,4.3,18.19,43.46,43.46,0,0,1-4.44,20,33.25,33.25,0,0,1-12.73,13.68A36.4,36.4,0,0,1,338.62,73Zm.94-54.35a11.4,11.4,0,0,0-9.84,4.9c-2.57,3.52-3.87,8.55-3.87,15,0,5.3,1.13,9.35,3.34,12s5.15,3.82,9.25,3.82a11.35,11.35,0,0,0,9.75-4.86c2.56-3.48,3.86-8.53,3.86-15,0-5.24-1.14-9.27-3.39-12S343.53,18.65,339.56,18.65Z"/><path class="cls-1" d="M407,72.72a12.5,12.5,0,0,1-6.4-1.67,9.89,9.89,0,0,1-4.35-5.22L377,14.84a9.83,9.83,0,0,1-.74-3.65,10.05,10.05,0,0,1,3.92-7.87,12.63,12.63,0,0,1,8.2-3,9.63,9.63,0,0,1,5.42,1.57,9.4,9.4,0,0,1,3.56,4.79l12.17,34.52L427.2,6.42a11.4,11.4,0,0,1,4.13-4.58A10.31,10.31,0,0,1,436.79.28,11.05,11.05,0,0,1,444.13,3a9.1,9.1,0,0,1,3.38,7.1,10.26,10.26,0,0,1-1.39,5.18L418.75,66.08a11.6,11.6,0,0,1-5.05,5A14.62,14.62,0,0,1,407,72.72Z"/><path class="cls-1" d="M457.83,72.07c-3.31,0-5.91-1-7.71-2.91s-2.58-4.64-2.25-8l3.91-49.83a11.52,11.52,0,0,1,3.48-7.66A11.14,11.14,0,0,1,463.05.93h32.36a11.09,11.09,0,0,1,7.39,2.28,8.25,8.25,0,0,1,2.86,6.49c0,8.92-8,9.88-11.37,9.88h-21l-.58,7.08h18.7a11.28,11.28,0,0,1,7.36,2.21,8.21,8.21,0,0,1,2.89,6.56c0,3.26-1,5.77-3.08,7.45s-4.6,2.34-8.2,2.34H471.23l-.67,8.2h20.65a10.9,10.9,0,0,1,7.42,2.35,8.48,8.48,0,0,1,2.84,6.6c0,8.75-8,9.7-11.38,9.7Z"/></svg>